{
  "accessors": [
    {
      "bufferView": 3,
      "componentType": 5126,
      "count": 7601,
      "max": [
        96.67144012451172,
        179.32359313964844,
        14.495809555053711
      ],
      "min": [
        -96.63555145263672,
        133.09078979492188,
        -10.890837669372559
      ],
      "type": "VEC3"
    },
    {
      "bufferView": 3,
      "byteOffset": 91212,
      "componentType": 5126,
      "count": 7601,
      "max": [
        0.9997690916061401,
        0.9995108842849731,
        0.9999366402626038
      ],
      "min": [
        -0.9998114705085754,
        -0.9999902248382568,
        -0.9998595118522644
      ],
      "type": "VEC3"
    },
    {
      "bufferView": 4,
      "componentType": 5126,
      "count": 7601,
      "max": [
        0.9999974966049194,
        0.9943642020225525,
        0.9999527335166931,
        1.0
      ],
      "min": [
        -0.9999995827674866,
        -0.9990938305854797,
        -0.9999445080757141,
        -1.0
      ],
      "type": "VEC4"
    },
    {
      "bufferView": 2,
      "componentType": 5126,
      "count": 7601,
      "max": [
        0.9924700260162354,
        0.9982979893684387
      ],
      "min": [
        0.004989999812096357,
        0.40540000796318054
      ],
      "type": "VEC2"
    },
    {
      "bufferView": 1,
      "componentType": 5125,
      "count": 39990,
      "type": "SCALAR"
    },
    {
      "bufferView": 3,
      "byteOffset": 182424,
      "componentType": 5126,
      "count": 25073,
      "max": [
        71.32545471191406,
        158.1617431640625,
        18.742958068847656
      ],
      "min": [
        -88.70262145996094,
        -0.239593505859375,
        -17.05957794189453
      ],
      "type": "VEC3"
    },
    {
      "bufferView": 3,
      "byteOffset": 483300,
      "componentType": 5126,
      "count": 25073,
      "max": [
        1.0,
        1.0,
        1.0
      ],
      "min": [
        -1.0,
        -1.0,
        -1.0
      ],
      "type": "VEC3"
    },
    {
      "bufferView": 4,
      "byteOffset": 121616,
      "componentType": 5126,
      "count": 25073,
      "max": [
        1.0,
        1.0,
        1.0,
        1.0
      ],
      "min": [
        -1.0,
        -1.0,
        -0.9999929666519165,
        -1.0
      ],
      "type": "VEC4"
    },
    {
      "bufferView": 2,
      "byteOffset": 60808,
      "componentType": 5126,
      "count": 25073,
      "max": [
        0.9977682828903198,
        0.997098982334137
      ],
      "min": [
        0.004606987349689007,
        0.0037456294521689415
      ],
      "type": "VEC2"
    },
    {
      "bufferView": 1,
      "byteOffset": 159960,
      "componentType": 5125,
      "count": 87909,
      "type": "SCALAR"
    },
    {
      "bufferView": 3,
      "byteOffset": 784176,
      "componentType": 5126,
      "count": 216,
      "max": [
        -18.91133689880371,
        7.315587043762207,
        105.62740325927734
      ],
      "min": [
        -46.190704345703125,
        -7.749337673187256,
        42.995079040527344
      ],
      "type": "VEC3"
    },
    {
      "bufferView": 3,
      "byteOffset": 786768,
      "componentType": 5126,
      "count": 216,
      "max": [
        1.0,
        1.0,
        1.0
      ],
      "min": [
        -1.0,
        -1.0,
        -1.0
      ],
      "type": "VEC3"
    },
    {
      "bufferView": 4,
      "byteOffset": 522784,
      "componentType": 5126,
      "count": 216,
      "max": [
        1.0,
        1.0,
        0.08450105786323547,
        1.0
      ],
      "min": [
        -1.0,
        -1.0,
        -0.1361151933670044,
        -1.0
      ],
      "type": "VEC4"
    },
    {
      "bufferView": 2,
      "byteOffset": 261392,
      "componentType": 5126,
      "count": 216,
      "max": [
        0.984161913394928,
        0.677030622959137
      ],
      "min": [
        0.15140439569950104,
        0.1716245412826538
      ],
      "type": "VEC2"
    },
    {
      "bufferView": 1,
      "byteOffset": 511596,
      "componentType": 5125,
      "count": 588,
      "type": "SCALAR"
    },
    {
      "bufferView": 3,
      "byteOffset": 789360,
      "componentType": 5126,
      "count": 1019,
      "max": [
        -116.81224060058594,
        418.5954284667969,
        -45.064170837402344
      ],
      "min": [
        -312.3872375488281,
        142.4365997314453,
        -63.261390686035156
      ],
      "type": "VEC3"
    },
    {
      "bufferView": 3,
      "byteOffset": 801588,
      "componentType": 5126,
      "count": 1019,
      "max": [
        0.9758474826812744,
        0.9984881281852722,
        0.9990159869194031
      ],
      "min": [
        -0.998594343662262,
        -0.9984310865402222,
        -0.9992212653160095
      ],
      "type": "VEC3"
    },
    {
      "bufferView": 4,
      "byteOffset": 526240,
      "componentType": 5126,
      "count": 1019,
      "max": [
        0.999932050704956,
        0.9940005540847778,
        0.9990501999855042,
        1.0
      ],
      "min": [
        -0.9998835325241089,
        -0.9993041753768921,
        -0.9992033839225769,
        -1.0
      ],
      "type": "VEC4"
    },
    {
      "bufferView": 2,
      "byteOffset": 263120,
      "componentType": 5126,
      "count": 1019,
      "max": [
        0.8341805934906006,
        0.9918863773345947
      ],
      "min": [
        0.00616608839482069,
        0.011094152927398682
      ],
      "type": "VEC2"
    },
    {
      "bufferView": 1,
      "byteOffset": 513948,
      "componentType": 5125,
      "count": 3216,
      "type": "SCALAR"
    },
    {
      "bufferView": 5,
      "componentType": 5126,
      "count": 34,
      "max": [
        2.5399999618530273,
        0.997687041759491,
        0.3176097273826599,
        0.0,
        0.12181589752435684,
        2.5399999618530273,
        0.996758222579956,
        0.0,
        0.9931853413581848,
        0.9948593378067017,
        2.5399999618530273,
        0.0,
        11.980297088623047,
        88.62384796142578,
        145.85830688476563,
        1.0
      ],
      "min": [
        -0.9999921321868896,
        -0.9982762336730957,
        -0.31782591342926025,
        0.0,
        -0.12194610387086868,
        -0.9997223019599915,
        -0.992527961730957,
        0.0,
        -0.9919027090072632,
        -0.13794514536857605,
        0.05817144364118576,
        0.0,
        -12.880260467529297,
        -156.51319885253906,
        -11.961257934570313,
        1.0
      ],
      "type": "MAT4"
    },
    {
      "bufferView": 0,
      "componentType": 5123,
      "count": 7601,
      "type": "VEC4"
    },
    {
      "bufferView": 4,
      "byteOffset": 542544,
      "componentType": 5126,
      "count": 7601,
      "max": [
        1.0,
        0.49687427282333374,
        0.31188303232192993,
        0.023901773616671562
      ],
      "min": [
        0.34813225269317627,
        0.0,
        0.0,
        0.0
      ],
      "type": "VEC4"
    },
    {
      "bufferView": 0,
      "byteOffset": 60808,
      "componentType": 5123,
      "count": 25073,
      "type": "VEC4"
    },
    {
      "bufferView": 4,
      "byteOffset": 664160,
      "componentType": 5126,
      "count": 25073,
      "max": [
        1.0,
        0.49970728158950806,
        0.3246373236179352,
        0.19697481393814087
      ],
      "min": [
        0.30824142694473267,
        0.0,
        0.0,
        0.0
      ],
      "type": "VEC4"
    }
  ],
  "asset": {
    "extras": {
      "author": "everlasting17th (https://sketchfab.com/everlastinggrey)",
      "license": "CC-BY-4.0 (http://creativecommons.org/licenses/by/4.0/)",
      "source": "https://sketchfab.com/3d-models/hospitalier-knight-mixamo-rigged-game-ready-6a6657a61d694fa59700da7f05d0219b",
      "title": "Hospitalier Knight [Mixamo rigged, game ready]"
    },
    "generator": "Sketchfab-15.25.0",
    "version": "2.0"
  },
  "bufferViews": [
    {
      "buffer": 0,
      "byteLength": 261392,
      "byteStride": 8,
      "name": "shortBufferViews",
      "target": 34962
    },
    {
      "buffer": 0,
      "byteLength": 526812,
      "byteOffset": 261392,
      "name": "floatBufferViews",
      "target": 34963
    },
    {
      "buffer": 0,
      "byteLength": 271272,
      "byteOffset": 788204,
      "byteStride": 8,
      "name": "floatBufferViews",
      "target": 34962
    },
    {
      "buffer": 0,
      "byteLength": 813816,
      "byteOffset": 1059476,
      "byteStride": 12,
      "name": "floatBufferViews",
      "target": 34962
    },
    {
      "buffer": 0,
      "byteLength": 1065328,
      "byteOffset": 1873292,
      "byteStride": 16,
      "name": "floatBufferViews",
      "target": 34962
    },
    {
      "buffer": 0,
      "byteLength": 2176,
      "byteOffset": 2938620,
      "name": "floatBufferViews"
    }
  ],
  "buffers": [
    {
      "byteLength": 2940796,
      "uri": "scene.bin"
    }
  ],
  "extensionsUsed": [
    "KHR_materials_specular"
  ],
  "images": [
    {
      "uri": "textures/staff__0_baseColor.jpeg"
    },
    {
      "uri": "textures/staff__0_metallicRoughness.png"
    },
    {
      "uri": "textures/staff__0_normal.png"
    },
    {
      "uri": "textures/body_baseColor.png"
    },
    {
      "uri": "textures/body_metallicRoughness.png"
    },
    {
      "uri": "textures/body_normal.png"
    },
    {
      "uri": "textures/body_specularf0.png"
    },
    {
      "uri": "textures/armor_baseColor.jpeg"
    },
    {
      "uri": "textures/armor_metallicRoughness.png"
    },
    {
      "uri": "textures/armor_normal.png"
    }
  ],
  "materials": [
    {
      "doubleSided": true,
      "extensions": {
        "KHR_materials_specular": {
          "specularColorFactor": [
            1.0,
            1.0,
            1.0
          ],
          "specularFactor": 0.0
        }
      },
      "name": "staff__0",
      "normalTexture": {
        "index": 2
      },
      "pbrMetallicRoughness": {
        "baseColorTexture": {
          "index": 0
        },
        "metallicRoughnessTexture": {
          "index": 1
        }
      }
    },
    {
      "alphaCutoff": 0.7693920016,
      "alphaMode": "MASK",
      "doubleSided": true,
      "extensions": {
        "KHR_materials_specular": {
          "specularColorFactor": [
            1.0,
            1.0,
            1.0
          ],
          "specularFactor": 1.0,
          "specularTexture": {
            "index": 6
          }
        }
      },
      "name": "body",
      "normalTexture": {
        "index": 5
      },
      "pbrMetallicRoughness": {
        "baseColorTexture": {
          "index": 3
        },
        "metallicFactor": 0.0,
        "metallicRoughnessTexture": {
          "index": 4
        }
      }
    },
    {
      "doubleSided": true,
      "extensions": {
        "KHR_materials_specular": {
          "specularColorFactor": [
            1.0,
            1.0,
            1.0
          ],
          "specularFactor": 0.0
        }
      },
      "name": "armor",
      "normalTexture": {
        "index": 9
      },
      "occlusionTexture": {
        "index": 8
      },
      "pbrMetallicRoughness": {
        "baseColorTexture": {
          "index": 7
        },
        "metallicRoughnessTexture": {
          "index": 8
        }
      }
    }
  ],
  "meshes": [
    {
      "name": "hospitalier knight_body_0",
      "primitives": [
        {
          "attributes": {
            "JOINTS_0": 21,
            "NORMAL": 1,
            "POSITION": 0,
            "TANGENT": 2,
            "TEXCOORD_0": 3,
            "WEIGHTS_0": 22
          },
          "indices": 4,
          "material": 1,
          "mode": 4
        }
      ]
    },
    {
      "name": "hospitalier knight_armor_0",
      "primitives": [
        {
          "attributes": {
            "JOINTS_0": 23,
            "NORMAL": 6,
            "POSITION": 5,
            "TANGENT": 7,
            "TEXCOORD_0": 8,
            "WEIGHTS_0": 24
          },
          "indices": 9,
          "material": 2,
          "mode": 4
        }
      ]
    },
    {
      "name": "staff__0",
      "primitives": [
        {
          "attributes": {
            "NORMAL": 11,
            "POSITION": 10,
            "TANGENT": 12,
            "TEXCOORD_0": 13
          },
          "indices": 14,
          "material": 0,
          "mode": 4
        }
      ]
    },
    {
      "name": "sword__0",
      "primitives": [
        {
          "attributes": {
            "NORMAL": 16,
            "POSITION": 15,
            "TANGENT": 17,
            "TEXCOORD_0": 18
          },
          "indices": 19,
          "material": 0,
          "mode": 4
        }
      ]
    }
  ],
  "nodes": [
    {
      "children": [
        1
      ],
      "matrix": [
        1.0,
        0.0,
        0.0,
        0.0,
        0.0,
        2.220446049250313e-16,
        -1.0,
        0.0,
        0.0,
        1.0,
        2.220446049250313e-16,
        0.0,
        0.0,
        0.0,
        0.0,
        1.0
      ],
      "name": "Sketchfab_model"
    },
    {
      "children": [
        2
      ],
      "matrix": [
        1.0,
        0.0,
        0.0,
        0.0,
        0.0,
        0.0,
        1.0,
        0.0,
        0.0,
        -1.0,
        0.0,
        0.0,
        0.0,
        0.0,
        0.0,
        1.0
      ],
      "name": "0086e850e8e544c9b1a285670b1634ba.fbx"
    },
    {
      "children": [
        3
      ],
      "name": "RootNode"
    },
    {
      "children": [
        4,
        6,
        7,
        5,
        41,
        44
      ],
      "name": "Object_3"
    },
    {
      "children": [
        8
      ],
      "name": "_rootJoint"
    },
    {
      "matrix": [
        2.5399999618530273,
        -4.016418477643079e-18,
        -3.285458160920179e-17,
        0.0,
        -3.2854581609201787e-17,
        1.5553014115588543e-16,
        -2.539999961853027,
        0.0,
        4.016418477643081e-18,
        2.5399999618530273,
        1.5553014115588545e-16,
        0.0,
        1.4210854715202004e-14,
        -5.684341886080802e-14,
        7.105427357601002e-15,
        1.0
      ],
      "name": "Object_5"
    },
    {
      "mesh": 0,
      "name": "Object_6",
      "skin": 0
    },
    {
      "mesh": 1,
      "name": "Object_7",
      "skin": 0
    },
    {
      "children": [
        9,
        31,
        36
      ],
      "name": "mixamorig:Hips_00",
      "rotation": [
        -0.0007014612783677876,
        -0.04331691190600395,
        -0.009159473702311516,
        0.9990191459655762
      ],
      "scale": [
        2.5399999618530273,
        2.5400002002716064,
        2.5399999618530273
      ],
      "translation": [
        0.6013506650924683,
        237.06509399414063,
        -3.4729974269866943
      ]
    },
    {
      "children": [
        10
      ],
      "name": "mixamorig:Spine_01",
      "rotation": [
        0.0231233648955822,
        0.03444409742951393,
        0.044618405401706696,
        0.998142421245575
      ],
      "scale": [
        0.9999999403953552,
        0.9999999403953552,
        0.9999997615814209
      ],
      "translation": [
        1.1920928955078125e-07,
        10.769905090332031,
        -1.3066998720169067
      ]
    },
    {
      "children": [
        11
      ],
      "name": "mixamorig:Spine1_02",
      "rotation": [
        0.005203231703490019,
        0.05318467319011688,
        -0.04184848442673683,
        0.9976939558982849
      ],
      "scale": [
        1.0,
        1.000000238418579,
        1.0000001192092896
      ],
      "translation": [
        -1.7763568394002505e-15,
        12.657096862792969,
        9.5367431640625e-07
      ]
    },
    {
      "children": [
        12,
        15,
        23
      ],
      "name": "mixamorig:Spine2_03",
      "rotation": [
        0.008883089758455753,
        0.04837246239185333,
        -0.04435468837618828,
        0.9978045225143433
      ],
      "scale": [
        1.0,
        1.0,
        0.9999999403953552
      ],
      "translation": [
        5.960464477539063e-08,
        14.4652099609375,
        -1.430511474609375e-06
      ]
    },
    {
      "children": [
        13
      ],
      "name": "mixamorig:Neck_04",
      "rotation": [
        0.09394244104623795,
        -0.13299356400966644,
        0.0805298238992691,
        0.9833628535270691
      ],
      "scale": [
        0.9999999403953552,
        0.9999999403953552,
        0.9999999403953552
      ],
      "translation": [
        -9.5367431640625e-07,
        16.273406982421875,
        0.0
      ]
    },
    {
      "children": [
        14
      ],
      "name": "mixamorig:Head_05",
      "rotation": [
        -0.13345462083816528,
        0.08630114048719406,
        -0.013804026879370213,
        0.9871938228607178
      ],
      "scale": [
        0.9999998807907104,
        0.9999999403953552,
        1.0
      ],
      "translation": [
        9.5367431640625e-07,
        7.4332122802734375,
        3.496295928955078
      ]
    },
    {
      "name": "mixamorig:HeadTop_End_06",
      "rotation": [
        -8.768487551518355e-18,
        7.552445779879235e-09,
        9.31322685637781e-10,
        1.0
      ],
      "scale": [
        0.9999999403953552,
        1.0,
        1.0
      ],
      "translation": [
        1.9073486328125e-06,
        21.396209716796875,
        10.06399917602539
      ]
    },
    {
      "children": [
        16
      ],
      "name": "mixamorig:LeftShoulder_07",
      "rotation": [
        -0.5504591464996338,
        -0.45302292704582214,
        0.5785660147666931,
        -0.39626544713974
      ],
      "scale": [
        0.9999999403953552,
        1.0,
        0.9999999403953552
      ],
      "translation": [
        6.375898361206055,
        14.10418701171875,
        -0.25769996643066406
      ]
    },
    {
      "children": [
        17
      ],
      "name": "mixamorig:LeftArm_08",
      "rotation": [
        0.32544100284576416,
        -0.0037621213123202324,
        0.1629967838525772,
        0.9314000606536865
      ],
      "scale": [
        0.9999999403953552,
        1.0000001192092896,
        0.9999999403953552
      ],
      "translation": [
        -3.552713678800501e-15,
        13.485300064086914,
        0.0
      ]
    },
    {
      "children": [
        18
      ],
      "name": "mixamorig:LeftForeArm_09",
      "rotation": [
        -0.05357331037521362,
        0.07132864743471146,
        0.2092965841293335,
        0.9737746715545654
      ],
      "scale": [
        1.0,
        1.0000001192092896,
        1.0000001192092896
      ],
      "translation": [
        9.5367431640625e-07,
        25.362701416015625,
        7.62939453125e-06
      ]
    },
    {
      "children": [
        19
      ],
      "name": "mixamorig:LeftHand_010",
      "rotation": [
        -0.14843936264514923,
        -0.0027447224128991365,
        -0.0018660103669390082,
        0.9889160394668579
      ],
      "scale": [
        1.0,
        0.9999998807907104,
        0.9999999403953552
      ],
      "translation": [
        7.105427357601002e-15,
        28.170597076416016,
        1.4210854715202004e-14
      ]
    },
    {
      "children": [
        20
      ],
      "name": "mixamorig:LeftHandIndex1_011",
      "rotation": [
        0.06740578263998032,
        0.018246350809931755,
        -0.04159631207585335,
        0.9966911673545837
      ],
      "scale": [
        0.9999999403953552,
        1.0,
        0.9999998807907104
      ],
      "translation": [
        -1.9073486328125e-06,
        14.256610870361328,
        -1.4210854715202004e-14
      ]
    },
    {
      "children": [
        21
      ],
      "name": "mixamorig:LeftHandIndex2_012",
      "rotation": [
        0.3375552296638489,
        0.023016508668661118,
        0.04197777807712555,
        0.9400875568389893
      ],
      "scale": [
        1.0000001192092896,
        1.0000001192092896,
        1.000000238418579
      ],
      "translation": [
        0.0,
        2.4202957153320313,
        0.0
      ]
    },
    {
      "children": [
        22
      ],
      "name": "mixamorig:LeftHandIndex3_013",
      "rotation": [
        0.582463264465332,
        0.06482945382595062,
        0.04924735799431801,
        0.808769702911377
      ],
      "scale": [
        0.9999999403953552,
        0.9999998211860657,
        1.0
      ],
      "translation": [
        0.16069984436035156,
        3.9575119018554688,
        0.5844039916992188
      ]
    },
    {
      "name": "mixamorig:LeftHandIndex4_014",
      "rotation": [
        -1.4901161193847656e-08,
        -1.4901159417490817e-08,
        -7.450580152834618e-09,
        1.0
      ],
      "scale": [
        1.0000001192092896,
        1.0,
        1.0
      ],
      "translation": [
        0.16210365295410156,
        3.551300048828125,
        0.322296142578125
      ]
    },
    {
      "children": [
        24
      ],
      "name": "mixamorig:RightShoulder_015",
      "rotation": [
        0.4998329281806946,
        -0.49451491236686707,
        0.6392290592193604,
        0.31146153807640076
      ],
      "scale": [
        0.9999998807907104,
        0.9999999403953552,
        1.0
      ],
      "translation": [
        -6.375898361206055,
        14.105499267578125,
        -0.26849842071533203
      ]
    },
    {
      "children": [
        25
      ],
      "name": "mixamorig:RightArm_016",
      "rotation": [
        0.43578359484672546,
        0.1684967428445816,
        0.0038257974665611982,
        0.884130597114563
      ],
      "scale": [
        0.9999999403953552,
        1.0,
        1.0
      ],
      "translation": [
        -1.9073486328125e-06,
        13.485298156738281,
        0.0
      ]
    },
    {
      "children": [
        26
      ],
      "name": "mixamorig:RightForeArm_017",
      "rotation": [
        -0.040219441056251526,
        -0.5155202746391296,
        -0.15856724977493286,
        0.8411169052124023
      ],
      "scale": [
        1.0000001192092896,
        1.0,
        1.0
      ],
      "translation": [
        -1.9073486328125e-06,
        25.360488891601563,
        -7.62939453125e-06
      ]
    },
    {
      "children": [
        27
      ],
      "name": "mixamorig:RightHand_018",
      "rotation": [
        -0.09873487800359726,
        0.23742246627807617,
        0.024826865643262863,
        0.966056764125824
      ],
      "scale": [
        1.0,
        0.9999998807907104,
        0.9999998807907104
      ],
      "translation": [
        0.0,
        28.15179443359375,
        -7.62939453125e-06
      ]
    },
    {
      "children": [
        28
      ],
      "name": "mixamorig:RightHandIndex1_019",
      "rotation": [
        0.5567525029182434,
        -0.025476505979895592,
        0.03767984360456467,
        0.8294322490692139
      ],
      "scale": [
        1.0,
        0.9999999403953552,
        1.0000001192092896
      ],
      "translation": [
        -9.5367431640625e-07,
        14.637504577636719,
        1.4210854715202004e-14
      ]
    },
    {
      "children": [
        29
      ],
      "name": "mixamorig:RightHandIndex2_020",
      "rotation": [
        0.44016921520233154,
        0.008793073706328869,
        0.032735660672187805,
        0.8972748517990112
      ],
      "scale": [
        0.9999999403953552,
        0.9999998211860657,
        1.0
      ],
      "translation": [
        2.86102294921875e-06,
        2.3462982177734375,
        3.814697265625e-06
      ]
    },
    {
      "children": [
        30
      ],
      "name": "mixamorig:RightHandIndex3_021",
      "rotation": [
        0.6517544984817505,
        0.004210236947983503,
        0.019702134653925896,
        0.7581623792648315
      ],
      "scale": [
        0.9999999403953552,
        0.9999999403953552,
        1.0
      ],
      "translation": [
        0.09460067749023438,
        3.8220977783203125,
        0.41539764404296875
      ]
    },
    {
      "name": "mixamorig:RightHandIndex4_022",
      "rotation": [
        -4.924988368515404e-17,
        -1.0128132998943329e-08,
        -3.4924596548080444e-09,
        1.0
      ],
      "translation": [
        0.10289955139160156,
        3.413196563720703,
        -0.04929351806640625
      ]
    },
    {
      "children": [
        32
      ],
      "name": "mixamorig:LeftUpLeg_023",
      "rotation": [
        -0.010026825591921806,
        0.15154798328876495,
        0.9859507083892822,
        -0.06952621787786484
      ],
      "scale": [
        0.9999997615814209,
        1.0,
        0.9999999403953552
      ],
      "translation": [
        9.039299011230469,
        -5.990386962890625,
        1.308799147605896
      ]
    },
    {
      "children": [
        33
      ],
      "name": "mixamorig:LeftLeg_024",
      "rotation": [
        -0.15912453830242157,
        0.19425706565380096,
        -0.049897730350494385,
        0.9666715264320374
      ],
      "scale": [
        1.0,
        1.0,
        1.000000238418579
      ],
      "translation": [
        0.0,
        43.30110168457031,
        0.0
      ]
    },
    {
      "children": [
        34
      ],
      "name": "mixamorig:LeftFoot_025",
      "rotation": [
        0.4815451204776764,
        -0.07116985321044922,
        -0.017049716785550117,
        0.8733604550361633
      ],
      "scale": [
        0.9999999403953552,
        1.0,
        1.0
      ],
      "translation": [
        0.0,
        34.789794921875,
        9.5367431640625e-07
      ]
    },
    {
      "children": [
        35
      ],
      "name": "mixamorig:LeftToeBase_026",
      "rotation": [
        0.30964353680610657,
        -0.018856672570109367,
        0.002648591995239258,
        0.9506620168685913
      ],
      "translation": [
        3.552713678800501e-15,
        18.772499084472656,
        0.0
      ]
    },
    {
      "name": "mixamorig:LeftToe_End_027",
      "rotation": [
        4.656612873077393e-10,
        7.724941306139832e-18,
        2.153683897887504e-09,
        1.0
      ],
      "scale": [
        0.9999998807907104,
        1.0,
        0.9999999403953552
      ],
      "translation": [
        0.0,
        7.448999404907227,
        2.220446049250313e-16
      ]
    },
    {
      "children": [
        37
      ],
      "name": "mixamorig:RightUpLeg_028",
      "rotation": [
        -0.11742647737264633,
        0.0237596295773983,
        0.9927824139595032,
        0.005434981547296047
      ],
      "scale": [
        0.9999998807907104,
        1.0,
        0.9999997615814209
      ],
      "translation": [
        -9.039297103881836,
        -5.990394592285156,
        1.2701992988586426
      ]
    },
    {
      "children": [
        38
      ],
      "name": "mixamorig:RightLeg_029",
      "rotation": [
        -0.20902954041957855,
        0.19379906356334686,
        -0.035660114139318466,
        0.9578501582145691
      ],
      "scale": [
        0.9999999403953552,
        1.0,
        0.9999999403953552
      ],
      "translation": [
        9.5367431640625e-07,
        43.28379821777344,
        -1.7763568394002505e-15
      ]
    },
    {
      "children": [
        39
      ],
      "name": "mixamorig:RightFoot_030",
      "rotation": [
        0.6250960230827332,
        0.0633092150092125,
        0.06970535963773727,
        0.774847149848938
      ],
      "translation": [
        -1.9073486328125e-06,
        34.8036994934082,
        -1.9073486328125e-06
      ]
    },
    {
      "children": [
        40
      ],
      "name": "mixamorig:RightToeBase_031",
      "rotation": [
        0.28262242674827576,
        0.023329351097345352,
        -0.004697955679148436,
        0.9589359760284424
      ],
      "scale": [
        1.0,
        0.9999998807907104,
        1.0
      ],
      "translation": [
        -2.86102294921875e-06,
        19.49770164489746,
        0.0
      ]
    },
    {
      "name": "mixamorig:RightToe_End_032",
      "rotation": [
        -9.313225746154785e-10,
        7.752043051729519e-18,
        -1.2048983144552494e-08,
        1.0
      ],
      "scale": [
        1.0000001192092896,
        1.0,
        1.0
      ],
      "translation": [
        9.5367431640625e-07,
        7.395204544067383,
        0.0
      ]
    },
    {
      "children": [
        42
      ],
      "matrix": [
        0.6628024151370002,
        0.008752546640989253,
        0.4301108739028269,
        0.0,
        -0.4290855169161508,
        -0.043376059904766714,
        0.6621050179821555,
        0.0,
        0.030944499184440408,
        -0.7889364579623849,
        -0.03163111298746925,
        0.0,
        34.80961608886719,
        250.2328338623047,
        -37.93992614746094,
        1.0
      ],
      "name": "staff"
    },
    {
      "children": [
        43
      ],
      "matrix": [
        1.0,
        0.0,
        -0.0,
        0.0,
        0.0,
        1.0,
        0.0,
        0.0,
        0.0,
        0.0,
        1.0,
        0.0,
        32.551021575927734,
        3.8746702671051025,
        -84.78239440917969,
        1.0
      ],
      "name": "Object_42"
    },
    {
      "mesh": 2,
      "name": "staff__0"
    },
    {
      "children": [
        45
      ],
      "matrix": [
        0.686705616370138,
        -0.09936041894067707,
        0.04621173652194957,
        0.0,
        -0.045914034645016165,
        0.005382907140807558,
        0.6938556259262251,
        0.0,
        -0.09949829517572797,
        -0.6882374201264332,
        -0.0012447114589522088,
        0.0,
        -119.84036254882813,
        219.11215209960938,
        29.148700714111328,
        1.0
      ],
      "name": "sword"
    },
    {
      "children": [
        46
      ],
      "matrix": [
        1.0,
        0.0,
        -0.0,
        0.0,
        0.0,
        1.0,
        0.0,
        0.0,
        0.0,
        0.0,
        1.0,
        0.0,
        278.488525390625,
        -182.1666717529297,
        49.46426773071289,
        1.0
      ],
      "name": "Object_45"
    },
    {
      "mesh": 3,
      "name": "sword__0"
    }
  ],
  "samplers": [
    {
      "magFilter": 9729,
      "minFilter": 9987,
      "wrapS": 10497,
      "wrapT": 10497
    }
  ],
  "scene": 0,
  "scenes": [
    {
      "name": "Sketchfab_Scene",
      "nodes": [
        0
      ]
    }
  ],
  "skins": [
    {
      "inverseBindMatrices": 20,
      "joints": [
        4,
        8,
        9,
        10,
        11,
        12,
        13,
        14,
        15,
        16,
        17,
        18,
        19,
        20,
        21,
        22,
        23,
        24,
        25,
        26,
        27,
        28,
        29,
        30,
        31,
        32,
        33,
        34,
        35,
        36,
        37,
        38,
        39,
        40
      ],
      "skeleton": 4
    }
  ],
  "textures": [
    {
      "sampler": 0,
      "source": 0
    },
    {
      "sampler": 0,
      "source": 1
    },
    {
      "sampler": 0,
      "source": 2
    },
    {
      "sampler": 0,
      "source": 3
    },
    {
      "sampler": 0,
      "source": 4
    },
    {
      "sampler": 0,
      "source": 5
    },
    {
      "sampler": 0,
      "source": 6
    },
    {
      "sampler": 0,
      "source": 7
    },
    {
      "sampler": 0,
      "source": 8
    },
    {
      "sampler": 0,
      "source": 9
    }
  ]
}
