{
  "accessors": [
    {
      "bufferView": 2,
      "componentType": 5126,
      "count": 3098,
      "max": [
        4.778367042541504,
        0.9248070120811462,
        1.5009520053863525
      ],
      "min": [
        -4.903740882873535,
        -1.4628889560699463,
        -2.765921115875244
      ],
      "type": "VEC3"
    },
    {
      "bufferView": 2,
      "byteOffset": 37176,
      "componentType": 5126,
      "count": 3098,
      "max": [
        1.0,
        1.0,
        1.0
      ],
      "min": [
        -1.0,
        -1.0,
        -1.0
      ],
      "type": "VEC3"
    },
    {
      "bufferView": 1,
      "componentType": 5126,
      "count": 3098,
      "max": [
        0.875,
        1.0
      ],
      "min": [
        0.125,
        0.0
      ],
      "type": "VEC2"
    },
    {
      "bufferView": 0,
      "componentType": 5125,
      "count": 6300,
      "type": "SCALAR"
    }
  ],
  "asset": {
    "extras": {
      "author": "Username.blend (https://sketchfab.com/chrismasmanidis3)",
      "license": "CC-BY-4.0 (http://creativecommons.org/licenses/by/4.0/)",
      "source": "https://sketchfab.com/3d-models/wall-1-low-poly-24adfebb64714e80b9c8f0a5eaeaed03",
      "title": "Wall 1 low-poly"
    },
    "generator": "Sketchfab-12.68.0",
    "version": "2.0"
  },
  "bufferViews": [
    {
      "buffer": 0,
      "byteLength": 25200,
      "name": "floatBufferViews",
      "target": 34963
    },
    {
      "buffer": 0,
      "byteLength": 24784,
      "byteOffset": 25200,
      "byteStride": 8,
      "name": "floatBufferViews",
      "target": 34962
    },
    {
      "buffer": 0,
      "byteLength": 74352,
      "byteOffset": 49984,
      "byteStride": 12,
      "name": "floatBufferViews",
      "target": 34962
    }
  ],
  "buffers": [
    {
      "byteLength": 124336,
      "uri": "scene.bin"
    }
  ],
  "materials": [
    {
      "doubleSided": true,
      "name": "preview",
      "pbrMetallicRoughness": {
        "metallicFactor": 0.0,
        "roughnessFactor": 0.6
      }
    }
  ],
  "meshes": [
    {
      "name": "Object_0",
      "primitives": [
        {
          "attributes": {
            "NORMAL": 1,
            "POSITION": 0,
            "TEXCOORD_0": 2
          },
          "indices": 3,
          "material": 0,
          "mode": 4
        }
      ]
    }
  ],
  "nodes": [
    {
      "children": [
        1
      ],
      "matrix": [
        0.953169047832489,
        -0.00508222263306386,
        0.3023953139781952,
        0.0,
        0.302399218082428,
        2.1154036405767352e-16,
        -0.9531813859939575,
        0.0,
        0.004844279959797859,
        0.9999870657920837,
        0.0015368601307275132,
        0.0,
        0.0814853087067604,
        -0.0003267595893703473,
        0.032524436712265015,
        1.0
      ],
      "name": "Sketchfab_model"
    },
    {
      "children": [
        2
      ],
      "name": "f3f36d93cb2944eda4bd4b1d726a7c57.obj.cleaner.materialmerger.gles"
    },
    {
      "mesh": 0,
      "name": "Object_2"
    }
  ],
  "scene": 0,
  "scenes": [
    {
      "name": "Sketchfab_Scene",
      "nodes": [
        0
      ]
    }
  ]
}
