{
  "accessors": [
    {
      "bufferView": 2,
      "componentType": 5126,
      "count": 44,
      "max": [
        1.0283972024917603,
        1.009998083114624,
        73.22964477539063
      ],
      "min": [
        -0.9914818406105042,
        -1.0098809003829956,
        -42.23672866821289
      ],
      "type": "VEC3"
    },
    {
      "bufferView": 2,
      "byteOffset": 528,
      "componentType": 5126,
      "count": 44,
      "max": [
        0.9395419955253601,
        0.7558372616767883,
        0.2491583377122879
      ],
      "min": [
        -0.9395419955253601,
        -0.7558372616767883,
        -0.8345012068748474
      ],
      "type": "VEC3"
    },
    {
      "bufferView": 1,
      "componentType": 5126,
      "count": 44,
      "max": [
        0.7767559289932251,
        0.5159587264060974
      ],
      "min": [
        0.7562687993049622,
        0.4956764578819275
      ],
      "type": "VEC2"
    },
    {
      "bufferView": 0,
      "componentType": 5125,
      "count": 150,
      "type": "SCALAR"
    },
    {
      "bufferView": 2,
      "byteOffset": 1056,
      "componentType": 5126,
      "count": 75,
      "max": [
        0.776485800743103,
        5.639692306518555,
        80.0944595336914
      ],
      "min": [
        -0.7395711541175842,
        -5.639575958251953,
        -43.11689758300781
      ],
      "type": "VEC3"
    },
    {
      "bufferView": 2,
      "byteOffset": 1956,
      "componentType": 5126,
      "count": 75,
      "max": [
        0.9839515089988708,
        0.8273332715034485,
        0.9999997615814209
      ],
      "min": [
        -0.9838514924049377,
        -0.8328371644020081,
        -0.9115521907806396
      ],
      "type": "VEC3"
    },
    {
      "bufferView": 1,
      "byteOffset": 352,
      "componentType": 5126,
      "count": 75,
      "max": [
        0.9934414625167847,
        0.8234708905220032
      ],
      "min": [
        0.970770001411438,
        0.5029082894325256
      ],
      "type": "VEC2"
    },
    {
      "bufferView": 0,
      "byteOffset": 600,
      "componentType": 5125,
      "count": 216,
      "type": "SCALAR"
    },
    {
      "bufferView": 2,
      "byteOffset": 2856,
      "componentType": 5126,
      "count": 1067,
      "max": [
        3.9964683055877686,
        89.46464538574219,
        2.491544246673584
      ],
      "min": [
        -4.0293426513671875,
        -89.46466064453125,
        -27.001100540161133
      ],
      "type": "VEC3"
    },
    {
      "bufferView": 2,
      "byteOffset": 15660,
      "componentType": 5126,
      "count": 1067,
      "max": [
        0.9998914003372192,
        0.9916799068450928,
        1.0
      ],
      "min": [
        -0.9999680519104004,
        -0.9916799068450928,
        -1.0
      ],
      "type": "VEC3"
    },
    {
      "bufferView": 1,
      "byteOffset": 952,
      "componentType": 5126,
      "count": 1067,
      "max": [
        0.8235943913459778,
        0.6840717196464539
      ],
      "min": [
        0.02361445687711239,
        0.41522568464279175
      ],
      "type": "VEC2"
    },
    {
      "bufferView": 1,
      "byteOffset": 9488,
      "componentType": 5126,
      "count": 1067,
      "max": [
        0.6383793354034424,
        0.6381795406341553
      ],
      "min": [
        0.6152767539024353,
        0.31516966223716736
      ],
      "type": "VEC2"
    },
    {
      "bufferView": 0,
      "byteOffset": 1464,
      "componentType": 5125,
      "count": 1824,
      "type": "SCALAR"
    },
    {
      "bufferView": 2,
      "byteOffset": 28464,
      "componentType": 5126,
      "count": 544,
      "max": [
        5.523545265197754,
        18.329761505126953,
        3.72990083694458
      ],
      "min": [
        -5.556418418884277,
        -18.32984733581543,
        -7.585468769073486
      ],
      "type": "VEC3"
    },
    {
      "bufferView": 2,
      "byteOffset": 34992,
      "componentType": 5126,
      "count": 544,
      "max": [
        0.999984622001648,
        0.7295077443122864,
        0.9993524551391602
      ],
      "min": [
        -0.9999591112136841,
        -0.7295077443122864,
        -0.9996651411056519
      ],
      "type": "VEC3"
    },
    {
      "bufferView": 1,
      "byteOffset": 18024,
      "componentType": 5126,
      "count": 544,
      "max": [
        0.8858904838562012,
        0.6478710174560547
      ],
      "min": [
        0.8071932196617126,
        0.4876505136489868
      ],
      "type": "VEC2"
    },
    {
      "bufferView": 1,
      "byteOffset": 22376,
      "componentType": 5126,
      "count": 544,
      "max": [
        0.6231703758239746,
        0.5097641944885254
      ],
      "min": [
        0.6143066883087158,
        0.4435848593711853
      ],
      "type": "VEC2"
    },
    {
      "bufferView": 0,
      "byteOffset": 8760,
      "componentType": 5125,
      "count": 816,
      "type": "SCALAR"
    },
    {
      "bufferView": 3,
      "componentType": 5126,
      "count": 150,
      "max": [
        3.3333332538604736
      ],
      "min": [
        0.0
      ],
      "type": "SCALAR"
    },
    {
      "bufferView": 4,
      "componentType": 5126,
      "count": 150,
      "max": [
        0.0,
        0.0,
        5728.75732421875
      ],
      "min": [
        0.0,
        0.0,
        -16.24182891845703
      ],
      "type": "VEC3"
    },
    {
      "bufferView": 3,
      "byteOffset": 600,
      "componentType": 5126,
      "count": 150,
      "max": [
        3.3333332538604736
      ],
      "min": [
        0.0
      ],
      "type": "SCALAR"
    },
    {
      "bufferView": 4,
      "byteOffset": 1800,
      "componentType": 5126,
      "count": 150,
      "max": [
        -0.015734974294900894,
        -5.124326708028093e-05,
        5728.75732421875
      ],
      "min": [
        -0.015734974294900894,
        -5.124326708028093e-05,
        -16.24182891845703
      ],
      "type": "VEC3"
    }
  ],
  "animations": [
    {
      "channels": [
        {
          "sampler": 0,
          "target": {
            "node": 4,
            "path": "translation"
          }
        }
      ],
      "name": "Arrow|ArrowAction",
      "samplers": [
        {
          "input": 18,
          "interpolation": "LINEAR",
          "output": 19
        }
      ]
    },
    {
      "channels": [
        {
          "sampler": 0,
          "target": {
            "node": 7,
            "path": "translation"
          }
        }
      ],
      "name": "Bow|ArrowAction",
      "samplers": [
        {
          "input": 20,
          "interpolation": "LINEAR",
          "output": 21
        }
      ]
    }
  ],
  "asset": {
    "extras": {
      "author": "RainerWahnsinn (https://sketchfab.com/RainerWahnsinn)",
      "license": "CC-BY-4.0 (http://creativecommons.org/licenses/by/4.0/)",
      "source": "https://sketchfab.com/3d-models/bow-75854aaab1ab439182ab0cc7c4923a31",
      "title": "Bow"
    },
    "generator": "Sketchfab-12.68.0",
    "version": "2.0"
  },
  "bufferViews": [
    {
      "buffer": 0,
      "byteLength": 12024,
      "name": "floatBufferViews",
      "target": 34963
    },
    {
      "buffer": 0,
      "byteLength": 26728,
      "byteOffset": 12024,
      "byteStride": 8,
      "name": "floatBufferViews",
      "target": 34962
    },
    {
      "buffer": 0,
      "byteLength": 41520,
      "byteOffset": 38752,
      "byteStride": 12,
      "name": "floatBufferViews",
      "target": 34962
    },
    {
      "buffer": 0,
      "byteLength": 1200,
      "byteOffset": 80272,
      "name": "floatBufferViews"
    },
    {
      "buffer": 0,
      "byteLength": 3600,
      "byteOffset": 81472,
      "byteStride": 12,
      "name": "floatBufferViews"
    }
  ],
  "buffers": [
    {
      "byteLength": 85072,
      "uri": "scene.bin"
    }
  ],
  "images": [
    {
      "uri": "textures/solid_baseColor.png"
    }
  ],
  "materials": [
    {
      "doubleSided": true,
      "name": "solid",
      "pbrMetallicRoughness": {
        "baseColorTexture": {
          "index": 0
        },
        "metallicFactor": 0.0
      }
    },
    {
      "doubleSided": true,
      "name": "metallic",
      "pbrMetallicRoughness": {
        "baseColorTexture": {
          "index": 0
        },
        "metallicFactor": 0.0,
        "roughnessFactor": 0.8040408205773457
      }
    }
  ],
  "meshes": [
    {
      "name": "Arrow_solid_0",
      "primitives": [
        {
          "attributes": {
            "NORMAL": 1,
            "POSITION": 0,
            "TEXCOORD_0": 2
          },
          "indices": 3,
          "material": 0,
          "mode": 4
        }
      ]
    },
    {
      "name": "Arrow_metallic_0",
      "primitives": [
        {
          "attributes": {
            "NORMAL": 5,
            "POSITION": 4,
            "TEXCOORD_0": 6
          },
          "indices": 7,
          "material": 1,
          "mode": 4
        }
      ]
    },
    {
      "name": "Bow_solid_0",
      "primitives": [
        {
          "attributes": {
            "NORMAL": 9,
            "POSITION": 8,
            "TEXCOORD_0": 10,
            "TEXCOORD_1": 11
          },
          "indices": 12,
          "material": 0,
          "mode": 4
        }
      ]
    },
    {
      "name": "Bow_metallic_0",
      "primitives": [
        {
          "attributes": {
            "NORMAL": 14,
            "POSITION": 13,
            "TEXCOORD_0": 15,
            "TEXCOORD_1": 16
          },
          "indices": 17,
          "material": 1,
          "mode": 4
        }
      ]
    }
  ],
  "nodes": [
    {
      "children": [
        1
      ],
      "matrix": [
        1.0,
        0.0,
        0.0,
        0.0,
        0.0,
        2.220446049250313e-16,
        -1.0,
        0.0,
        0.0,
        1.0,
        2.220446049250313e-16,
        0.0,
        0.0,
        0.0,
        0.0,
        1.0
      ],
      "name": "Sketchfab_model"
    },
    {
      "children": [
        2
      ],
      "matrix": [
        1.0,
        0.0,
        0.0,
        0.0,
        0.0,
        0.0,
        1.0,
        0.0,
        0.0,
        -1.0,
        0.0,
        0.0,
        0.0,
        0.0,
        0.0,
        1.0
      ],
      "name": "bow.fbx"
    },
    {
      "children": [
        3
      ],
      "name": "Object_2"
    },
    {
      "children": [
        4,
        7
      ],
      "name": "RootNode"
    },
    {
      "children": [
        5,
        6
      ],
      "name": "Arrow"
    },
    {
      "mesh": 0,
      "name": "Arrow_solid_0"
    },
    {
      "mesh": 1,
      "name": "Arrow_metallic_0"
    },
    {
      "children": [
        8,
        9
      ],
      "name": "Bow",
      "translation": [
        -0.015734974294900894,
        -5.124326708028093e-05,
        -8.144999504089355
      ]
    },
    {
      "mesh": 2,
      "name": "Bow_solid_0"
    },
    {
      "mesh": 3,
      "name": "Bow_metallic_0"
    }
  ],
  "samplers": [
    {
      "magFilter": 9729,
      "minFilter": 9987,
      "wrapS": 10497,
      "wrapT": 10497
    }
  ],
  "scene": 0,
  "scenes": [
    {
      "name": "Sketchfab_Scene",
      "nodes": [
        0
      ]
    }
  ],
  "textures": [
    {
      "sampler": 0,
      "source": 0
    }
  ]
}
