{
  "accessors": [
    {
      "bufferView": 2,
      "componentType": 5126,
      "count": 1120,
      "max": [
        1.1387406587600708,
        1.2583320140838623,
        0.2841070890426636
      ],
      "min": [
        -9.811515808105469,
        -1.2583321332931519,
        -1.087345004081726
      ],
      "type": "VEC3"
    },
    {
      "bufferView": 2,
      "byteOffset": 13440,
      "componentType": 5126,
      "count": 1120,
      "max": [
        0.9971981048583984,
        0.9971981048583984,
        0.9717742204666138
      ],
      "min": [
        -0.9971981048583984,
        -0.9971981048583984,
        -1.0
      ],
      "type": "VEC3"
    },
    {
      "bufferView": 1,
      "componentType": 5126,
      "count": 1120,
      "max": [
        1.0,
        0.9999998807907104
      ],
      "min": [
        -5.960464477539063e-08,
        -1.1920928955078125e-07
      ],
      "type": "VEC2"
    },
    {
      "bufferView": 0,
      "componentType": 5125,
      "count": 3252,
      "type": "SCALAR"
    },
    {
      "bufferView": 2,
      "byteOffset": 26880,
      "componentType": 5126,
      "count": 3146,
      "max": [
        1.0358575582504272,
        1.1554487943649292,
        7.725702285766602
      ],
      "min": [
        -9.708632469177246,
        -1.1554490327835083,
        0.2841069996356964
      ],
      "type": "VEC3"
    },
    {
      "bufferView": 2,
      "byteOffset": 64632,
      "componentType": 5126,
      "count": 3146,
      "max": [
        1.0,
        1.0,
        0.9350064396858215
      ],
      "min": [
        -1.0,
        -1.0,
        -0.9685031175613403
      ],
      "type": "VEC3"
    },
    {
      "bufferView": 1,
      "byteOffset": 8960,
      "componentType": 5126,
      "count": 3146,
      "max": [
        3.4689671993255615,
        2.6655449867248535
      ],
      "min": [
        -2.4669675827026367,
        -1.6351351737976074
      ],
      "type": "VEC2"
    },
    {
      "bufferView": 0,
      "byteOffset": 13008,
      "componentType": 5125,
      "count": 9984,
      "type": "SCALAR"
    },
    {
      "bufferView": 2,
      "byteOffset": 102384,
      "componentType": 5126,
      "count": 291,
      "max": [
        1.0375579595565796,
        1.1799999475479126,
        0.5374701619148254
      ],
      "min": [
        -1.0191375017166138,
        -1.1799999475479126,
        -1.7229459285736084
      ],
      "type": "VEC3"
    },
    {
      "bufferView": 2,
      "byteOffset": 105876,
      "componentType": 5126,
      "count": 291,
      "max": [
        1.0,
        1.0,
        1.0
      ],
      "min": [
        -1.0,
        -1.0,
        -1.0
      ],
      "type": "VEC3"
    },
    {
      "bufferView": 1,
      "byteOffset": 34128,
      "componentType": 5126,
      "count": 291,
      "max": [
        0.6821668148040771,
        0.6534342765808105
      ],
      "min": [
        0.35763752460479736,
        0.21519075334072113
      ],
      "type": "VEC2"
    },
    {
      "bufferView": 0,
      "byteOffset": 52944,
      "componentType": 5125,
      "count": 696,
      "type": "SCALAR"
    },
    {
      "bufferView": 2,
      "byteOffset": 109368,
      "componentType": 5126,
      "count": 251,
      "max": [
        1.0085291862487793,
        1.0000003576278687,
        0.4655887484550476
      ],
      "min": [
        -0.9914708733558655,
        -1.0000003576278687,
        -1.7229459285736084
      ],
      "type": "VEC3"
    },
    {
      "bufferView": 2,
      "byteOffset": 112380,
      "componentType": 5126,
      "count": 251,
      "max": [
        1.0,
        1.0,
        1.0
      ],
      "min": [
        -1.0,
        -1.0,
        -1.0
      ],
      "type": "VEC3"
    },
    {
      "bufferView": 1,
      "byteOffset": 36456,
      "componentType": 5126,
      "count": 251,
      "max": [
        1.6072518825531006,
        2.787687063217163
      ],
      "min": [
        -0.6024022698402405,
        -1.5129914283752441
      ],
      "type": "VEC2"
    },
    {
      "bufferView": 0,
      "byteOffset": 55728,
      "componentType": 5125,
      "count": 882,
      "type": "SCALAR"
    },
    {
      "bufferView": 2,
      "byteOffset": 115392,
      "componentType": 5126,
      "count": 72,
      "max": [
        1.0,
        1.0,
        0.9307918548583984
      ],
      "min": [
        -1.0,
        -1.0,
        -1.0039987564086914
      ],
      "type": "VEC3"
    },
    {
      "bufferView": 2,
      "byteOffset": 116256,
      "componentType": 5126,
      "count": 72,
      "max": [
        1.0,
        1.0,
        0.9578524231910706
      ],
      "min": [
        -1.0,
        -1.0,
        -1.0
      ],
      "type": "VEC3"
    },
    {
      "bufferView": 1,
      "byteOffset": 38464,
      "componentType": 5126,
      "count": 72,
      "max": [
        0.1798466593027115,
        0.46029675006866455
      ],
      "min": [
        0.14929157495498657,
        0.37065619230270386
      ],
      "type": "VEC2"
    },
    {
      "bufferView": 0,
      "byteOffset": 59256,
      "componentType": 5125,
      "count": 126,
      "type": "SCALAR"
    },
    {
      "bufferView": 2,
      "byteOffset": 117120,
      "componentType": 5126,
      "count": 992,
      "max": [
        3.4212775230407715,
        1.1613105535507202,
        -0.3747645616531372
      ],
      "min": [
        -4.247894287109375,
        -1.1613105535507202,
        -4.788109302520752
      ],
      "type": "VEC3"
    },
    {
      "bufferView": 2,
      "byteOffset": 129024,
      "componentType": 5126,
      "count": 992,
      "max": [
        1.0,
        1.0,
        1.0
      ],
      "min": [
        -1.0,
        -1.0,
        -1.0
      ],
      "type": "VEC3"
    },
    {
      "bufferView": 1,
      "byteOffset": 39040,
      "componentType": 5126,
      "count": 992,
      "max": [
        0.75,
        0.8750000596046448
      ],
      "min": [
        0.0,
        0.0
      ],
      "type": "VEC2"
    },
    {
      "bufferView": 0,
      "byteOffset": 59760,
      "componentType": 5125,
      "count": 2100,
      "type": "SCALAR"
    },
    {
      "bufferView": 2,
      "byteOffset": 140928,
      "componentType": 5126,
      "count": 56,
      "max": [
        2.342690944671631,
        1.061795949935913,
        -1.5293469429016113
      ],
      "min": [
        -3.1693074703216553,
        -1.061795949935913,
        -4.791405200958252
      ],
      "type": "VEC3"
    },
    {
      "bufferView": 2,
      "byteOffset": 141600,
      "componentType": 5126,
      "count": 56,
      "max": [
        1.0,
        1.0,
        0.0
      ],
      "min": [
        -1.0,
        -1.0,
        -1.0
      ],
      "type": "VEC3"
    },
    {
      "bufferView": 1,
      "byteOffset": 46976,
      "componentType": 5126,
      "count": 56,
      "max": [
        1.433244228363037,
        2.813072681427002
      ],
      "min": [
        -0.4332442283630371,
        -1.4876073598861694
      ],
      "type": "VEC2"
    },
    {
      "bufferView": 0,
      "byteOffset": 68160,
      "componentType": 5125,
      "count": 108,
      "type": "SCALAR"
    },
    {
      "bufferView": 2,
      "byteOffset": 142272,
      "componentType": 5126,
      "count": 1240,
      "max": [
        -0.9098304510116577,
        0.36423543095588684,
        1.1847866773605347
      ],
      "min": [
        -3.2626917362213135,
        -2.409691333770752,
        -9.618377685546875
      ],
      "type": "VEC3"
    },
    {
      "bufferView": 2,
      "byteOffset": 157152,
      "componentType": 5126,
      "count": 1240,
      "max": [
        0.9963893294334412,
        1.0,
        0.9986671209335327
      ],
      "min": [
        -0.9961010813713074,
        -1.0,
        -0.9986687898635864
      ],
      "type": "VEC3"
    },
    {
      "bufferView": 1,
      "byteOffset": 47424,
      "componentType": 5126,
      "count": 1240,
      "max": [
        0.875,
        1.0
      ],
      "min": [
        0.08260569721460342,
        0.0
      ],
      "type": "VEC2"
    },
    {
      "bufferView": 0,
      "byteOffset": 68592,
      "componentType": 5125,
      "count": 2640,
      "type": "SCALAR"
    },
    {
      "bufferView": 2,
      "byteOffset": 172032,
      "componentType": 5126,
      "count": 9500,
      "max": [
        1.6707345247268677,
        1.7903255224227905,
        9.610993385314941
      ],
      "min": [
        -10.343509674072266,
        -1.7903262376785278,
        5.400203704833984
      ],
      "type": "VEC3"
    },
    {
      "bufferView": 2,
      "byteOffset": 286032,
      "componentType": 5126,
      "count": 9500,
      "max": [
        0.9999994039535522,
        0.9999994039535522,
        1.0
      ],
      "min": [
        -0.9999994039535522,
        -0.9999994039535522,
        -0.8992829918861389
      ],
      "type": "VEC3"
    },
    {
      "bufferView": 1,
      "byteOffset": 57344,
      "componentType": 5126,
      "count": 9500,
      "max": [
        2.1919076442718506,
        7.4880051612854
      ],
      "min": [
        -1.191907525062561,
        0.6042572259902954
      ],
      "type": "VEC2"
    },
    {
      "bufferView": 0,
      "byteOffset": 79152,
      "componentType": 5125,
      "count": 28416,
      "type": "SCALAR"
    }
  ],
  "asset": {
    "extras": {
      "author": "farooq.smurf (https://sketchfab.com/farooq.smurf)",
      "license": "CC-BY-4.0 (http://creativecommons.org/licenses/by/4.0/)",
      "source": "https://sketchfab.com/3d-models/new-castle-door-c17775043b0a485e844d5f7a2aacce24",
      "title": "New Castle Door"
    },
    "generator": "Sketchfab-15.66.0",
    "version": "2.0"
  },
  "bufferViews": [
    {
      "buffer": 0,
      "byteLength": 192816,
      "name": "floatBufferViews",
      "target": 34963
    },
    {
      "buffer": 0,
      "byteLength": 133344,
      "byteOffset": 192816,
      "byteStride": 8,
      "name": "floatBufferViews",
      "target": 34962
    },
    {
      "buffer": 0,
      "byteLength": 400032,
      "byteOffset": 326160,
      "byteStride": 12,
      "name": "floatBufferViews",
      "target": 34962
    }
  ],
  "buffers": [
    {
      "byteLength": 726192,
      "uri": "scene.bin"
    }
  ],
  "extensionsUsed": [
    "KHR_materials_clearcoat"
  ],
  "images": [
    {
      "uri": "textures/Cement_baseColor.jpeg"
    },
    {
      "uri": "textures/Cement_clearcoat.png"
    },
    {
      "uri": "textures/stone_baseColor.png"
    },
    {
      "uri": "textures/stone_clearcoat.png"
    },
    {
      "uri": "textures/angle_baseColor.png"
    },
    {
      "uri": "textures/angle_clearcoat.png"
    },
    {
      "uri": "textures/Roof_baseColor.jpeg"
    },
    {
      "uri": "textures/Roof_clearcoat.png"
    }
  ],
  "materials": [
    {
      "doubleSided": true,
      "extensions": {
        "KHR_materials_clearcoat": {
          "clearcoatFactor": 1.0,
          "clearcoatRoughnessFactor": 0.04,
          "clearcoatTexture": {
            "index": 1
          }
        }
      },
      "name": "Cement",
      "pbrMetallicRoughness": {
        "baseColorTexture": {
          "index": 0
        },
        "metallicFactor": 0.0,
        "roughnessFactor": 0.8211145618000169
      }
    },
    {
      "doubleSided": true,
      "extensions": {
        "KHR_materials_clearcoat": {
          "clearcoatFactor": 0.21790542599748874,
          "clearcoatRoughnessFactor": 0.04,
          "clearcoatTexture": {
            "index": 3
          }
        }
      },
      "name": "stone",
      "pbrMetallicRoughness": {
        "baseColorTexture": {
          "index": 2
        },
        "metallicFactor": 0.0,
        "roughnessFactor": 0.8211145618000169
      }
    },
    {
      "doubleSided": true,
      "extensions": {
        "KHR_materials_clearcoat": {
          "clearcoatFactor": 0.1,
          "clearcoatRoughnessFactor": 0.04,
          "clearcoatTexture": {
            "index": 5
          }
        }
      },
      "name": "angle",
      "pbrMetallicRoughness": {
        "baseColorTexture": {
          "index": 4
        },
        "metallicFactor": 0.0,
        "roughnessFactor": 0.8211145618000169
      }
    },
    {
      "doubleSided": true,
      "extensions": {
        "KHR_materials_clearcoat": {
          "clearcoatFactor": 0.1,
          "clearcoatRoughnessFactor": 0.04,
          "clearcoatTexture": {
            "index": 7
          }
        }
      },
      "name": "Roof",
      "pbrMetallicRoughness": {
        "baseColorTexture": {
          "index": 6
        },
        "metallicFactor": 0.0,
        "roughnessFactor": 0.8211145618000169
      }
    }
  ],
  "meshes": [
    {
      "name": "Tower_Cement_0",
      "primitives": [
        {
          "attributes": {
            "NORMAL": 1,
            "POSITION": 0,
            "TEXCOORD_0": 2
          },
          "indices": 3,
          "material": 0,
          "mode": 4
        }
      ]
    },
    {
      "name": "Tower_stone_0",
      "primitives": [
        {
          "attributes": {
            "NORMAL": 5,
            "POSITION": 4,
            "TEXCOORD_0": 6
          },
          "indices": 7,
          "material": 1,
          "mode": 4
        }
      ]
    },
    {
      "name": "Wall_angle_0",
      "primitives": [
        {
          "attributes": {
            "NORMAL": 9,
            "POSITION": 8,
            "TEXCOORD_0": 10
          },
          "indices": 11,
          "material": 2,
          "mode": 4
        }
      ]
    },
    {
      "name": "Wall_stone_0",
      "primitives": [
        {
          "attributes": {
            "NORMAL": 13,
            "POSITION": 12,
            "TEXCOORD_0": 14
          },
          "indices": 15,
          "material": 1,
          "mode": 4
        }
      ]
    },
    {
      "name": "Door_angle_0",
      "primitives": [
        {
          "attributes": {
            "NORMAL": 17,
            "POSITION": 16,
            "TEXCOORD_0": 18
          },
          "indices": 19,
          "material": 2,
          "mode": 4
        }
      ]
    },
    {
      "name": "Design_angle_0",
      "primitives": [
        {
          "attributes": {
            "NORMAL": 21,
            "POSITION": 20,
            "TEXCOORD_0": 22
          },
          "indices": 23,
          "material": 2,
          "mode": 4
        }
      ]
    },
    {
      "name": "Design_stone_0",
      "primitives": [
        {
          "attributes": {
            "NORMAL": 25,
            "POSITION": 24,
            "TEXCOORD_0": 26
          },
          "indices": 27,
          "material": 1,
          "mode": 4
        }
      ]
    },
    {
      "name": "Angle_angle_0",
      "primitives": [
        {
          "attributes": {
            "NORMAL": 29,
            "POSITION": 28,
            "TEXCOORD_0": 30
          },
          "indices": 31,
          "material": 2,
          "mode": 4
        }
      ]
    },
    {
      "name": "Roof_Roof_0",
      "primitives": [
        {
          "attributes": {
            "NORMAL": 33,
            "POSITION": 32,
            "TEXCOORD_0": 34
          },
          "indices": 35,
          "material": 3,
          "mode": 4
        }
      ]
    }
  ],
  "nodes": [
    {
      "children": [
        1
      ],
      "matrix": [
        1.0,
        0.0,
        0.0,
        0.0,
        0.0,
        2.220446049250313e-16,
        -1.0,
        0.0,
        0.0,
        1.0,
        2.220446049250313e-16,
        0.0,
        0.0,
        0.0,
        0.0,
        1.0
      ],
      "name": "Sketchfab_model"
    },
    {
      "children": [
        2
      ],
      "matrix": [
        0.009999999776482582,
        0.0,
        0.0,
        0.0,
        0.0,
        0.0,
        0.009999999776482582,
        0.0,
        0.0,
        -0.009999999776482582,
        0.0,
        0.0,
        0.0,
        0.0,
        0.0,
        1.0
      ],
      "name": "53ba00fc86754253ae9a077ad9fbfd69.fbx"
    },
    {
      "children": [
        3,
        6,
        9,
        11,
        14,
        16
      ],
      "name": "RootNode"
    },
    {
      "children": [
        4,
        5
      ],
      "matrix": [
        100.0,
        0.0,
        0.0,
        0.0,
        0.0,
        -1.629206793918314e-05,
        -99.99999999999868,
        0.0,
        0.0,
        99.99999999999868,
        -1.629206793918314e-05,
        0.0,
        394.9389953613281,
        -379.68084716796875,
        0.0,
        1.0
      ],
      "name": "Tower"
    },
    {
      "mesh": 0,
      "name": "Tower_Cement_0"
    },
    {
      "mesh": 1,
      "name": "Tower_stone_0"
    },
    {
      "children": [
        7,
        8
      ],
      "matrix": [
        350.5576171875,
        0.0,
        0.0,
        0.0,
        -0.0,
        -1.037822639156249e-05,
        -63.701099395751115,
        0.0,
        0.0,
        242.1659240722624,
        -3.945383687540418e-05,
        0.0,
        -38.699798583984375,
        -60.56798553466797,
        0.0,
        1.0
      ],
      "name": "Wall"
    },
    {
      "mesh": 2,
      "name": "Wall_angle_0"
    },
    {
      "mesh": 3,
      "name": "Wall_stone_0"
    },
    {
      "children": [
        10
      ],
      "matrix": [
        58.65060043334961,
        0.0,
        0.0,
        0.0,
        -0.0,
        -1.1863941000956175e-05,
        -72.82035064697169,
        0.0,
        0.0,
        99.99999999999868,
        -1.629206793918314e-05,
        0.0,
        -41.33082580566406,
        -377.0635070800781,
        0.0,
        1.0
      ],
      "name": "Door"
    },
    {
      "mesh": 4,
      "name": "Door_angle_0"
    },
    {
      "children": [
        12,
        13
      ],
      "matrix": [
        100.0,
        0.0,
        0.0,
        0.0,
        0.0,
        -1.1863944729914597e-05,
        -72.82037353515528,
        0.0,
        0.0,
        99.99999999999868,
        -1.629206793918314e-05,
        0.0,
        0.0,
        0.0,
        0.0,
        1.0
      ],
      "name": "Design"
    },
    {
      "mesh": 5,
      "name": "Design_angle_0"
    },
    {
      "mesh": 6,
      "name": "Design_stone_0"
    },
    {
      "children": [
        15
      ],
      "matrix": [
        4.3312576825105253e-05,
        0.0,
        99.99999999999062,
        0.0,
        -1.5099579909782291e-05,
        -99.99999999999885,
        6.54001714623014e-12,
        0.0,
        99.99999999998948,
        -1.5099579909783709e-05,
        -4.331257681400302e-05,
        0.0,
        382.979736328125,
        138.91751098632813,
        203.85353088378906,
        1.0
      ],
      "name": "Angle"
    },
    {
      "mesh": 7,
      "name": "Angle_angle_0"
    },
    {
      "children": [
        17
      ],
      "matrix": [
        100.0,
        0.0,
        0.0,
        0.0,
        0.0,
        -1.629206793918314e-05,
        -99.99999999999868,
        0.0,
        0.0,
        99.99999999999868,
        -1.629206793918314e-05,
        0.0,
        394.9389953613281,
        -379.68084716796875,
        0.0,
        1.0
      ],
      "name": "Roof"
    },
    {
      "mesh": 8,
      "name": "Roof_Roof_0"
    }
  ],
  "samplers": [
    {
      "magFilter": 9729,
      "minFilter": 9987,
      "wrapS": 10497,
      "wrapT": 10497
    }
  ],
  "scene": 0,
  "scenes": [
    {
      "name": "Sketchfab_Scene",
      "nodes": [
        0
      ]
    }
  ],
  "textures": [
    {
      "sampler": 0,
      "source": 0
    },
    {
      "sampler": 0,
      "source": 1
    },
    {
      "sampler": 0,
      "source": 2
    },
    {
      "sampler": 0,
      "source": 3
    },
    {
      "sampler": 0,
      "source": 4
    },
    {
      "sampler": 0,
      "source": 5
    },
    {
      "sampler": 0,
      "source": 6
    },
    {
      "sampler": 0,
      "source": 7
    }
  ]
}
