{
  "accessors": [
    {
      "bufferView": 3,
      "componentType": 5126,
      "count": 19539,
      "max": [
        96.79013061523438,
        176.82801818847656,
        20.225872039794922
      ],
      "min": [
        -96.79013061523438,
        -1.3379520177841187,
        -53.16777420043945
      ],
      "type": "VEC3"
    },
    {
      "bufferView": 3,
      "byteOffset": 234468,
      "componentType": 5126,
      "count": 19539,
      "max": [
        1.0,
        1.0,
        1.0
      ],
      "min": [
        -1.0,
        -1.0,
        -1.0
      ],
      "type": "VEC3"
    },
    {
      "bufferView": 4,
      "componentType": 5126,
      "count": 19539,
      "max": [
        1.0,
        1.0,
        0.9999732375144958,
        1.0
      ],
      "min": [
        -1.0,
        -1.0,
        -1.0,
        -1.0
      ],
      "type": "VEC4"
    },
    {
      "bufferView": 2,
      "componentType": 5126,
      "count": 19539,
      "max": [
        0.9972532987594604,
        0.9950332045555115
      ],
      "min": [
        0.0027676820755004883,
        0.000499894842505455
      ],
      "type": "VEC2"
    },
    {
      "bufferView": 1,
      "componentType": 5125,
      "count": 72024,
      "type": "SCALAR"
    },
    {
      "bufferView": 3,
      "byteOffset": 468936,
      "componentType": 5126,
      "count": 664,
      "max": [
        -44.09455108642578,
        7.7696990966796875,
        19.89569854736328
      ],
      "min": [
        -102.39388275146484,
        -9.105541229248047,
        -61.2932014465332
      ],
      "type": "VEC3"
    },
    {
      "bufferView": 3,
      "byteOffset": 476904,
      "componentType": 5126,
      "count": 664,
      "max": [
        0.9844028353691101,
        0.9957849979400635,
        0.9962043166160583
      ],
      "min": [
        -0.9844034910202026,
        -0.9847153425216675,
        -0.9961950778961182
      ],
      "type": "VEC3"
    },
    {
      "bufferView": 4,
      "byteOffset": 312624,
      "componentType": 5126,
      "count": 664,
      "max": [
        0.9833453893661499,
        0.9850323796272278,
        0.9982677102088928,
        -1.0
      ],
      "min": [
        -0.9974808692932129,
        -0.9966365694999695,
        -0.9996811747550964,
        -1.0
      ],
      "type": "VEC4"
    },
    {
      "bufferView": 2,
      "byteOffset": 156312,
      "componentType": 5126,
      "count": 664,
      "max": [
        0.9917611479759216,
        0.5846472978591919
      ],
      "min": [
        0.3761528432369232,
        0.005736128892749548
      ],
      "type": "VEC2"
    },
    {
      "bufferView": 1,
      "byteOffset": 288096,
      "componentType": 5125,
      "count": 1812,
      "type": "SCALAR"
    },
    {
      "bufferView": 3,
      "byteOffset": 484872,
      "componentType": 5126,
      "count": 336,
      "max": [
        -39.97322463989258,
        10.1365966796875,
        -170.39413452148438
      ],
      "min": [
        -106.27838134765625,
        -97.7254638671875,
        -284.9615478515625
      ],
      "type": "VEC3"
    },
    {
      "bufferView": 3,
      "byteOffset": 488904,
      "componentType": 5126,
      "count": 336,
      "max": [
        0.8675174117088318,
        0.9865680932998657,
        0.9795570969581604
      ],
      "min": [
        -0.9964494109153748,
        -0.8718207478523254,
        -0.9935091733932495
      ],
      "type": "VEC3"
    },
    {
      "bufferView": 4,
      "byteOffset": 323248,
      "componentType": 5126,
      "count": 336,
      "max": [
        0.2043425291776657,
        0.7860941290855408,
        0.09906306862831116,
        1.0
      ],
      "min": [
        -0.3188098669052124,
        -0.992992639541626,
        -0.9872255325317383,
        -1.0
      ],
      "type": "VEC4"
    },
    {
      "bufferView": 2,
      "byteOffset": 161624,
      "componentType": 5126,
      "count": 336,
      "max": [
        0.7794451117515564,
        0.2310093194246292
      ],
      "min": [
        0.39480268955230713,
        0.06434854120016098
      ],
      "type": "VEC2"
    },
    {
      "bufferView": 1,
      "byteOffset": 295344,
      "componentType": 5125,
      "count": 1716,
      "type": "SCALAR"
    },
    {
      "bufferView": 3,
      "byteOffset": 492936,
      "componentType": 5126,
      "count": 1010,
      "max": [
        49.09849548339844,
        -20.042171478271484,
        15.089752197265625
      ],
      "min": [
        32.940757751464844,
        -89.40190124511719,
        -64.71611022949219
      ],
      "type": "VEC3"
    },
    {
      "bufferView": 3,
      "byteOffset": 505056,
      "componentType": 5126,
      "count": 1010,
      "max": [
        0.999184250831604,
        1.0,
        0.9698468446731567
      ],
      "min": [
        -0.9991843104362488,
        -1.0,
        -0.9917795658111572
      ],
      "type": "VEC3"
    },
    {
      "bufferView": 4,
      "byteOffset": 328624,
      "componentType": 5126,
      "count": 1010,
      "max": [
        0.9912710785865784,
        0.8734011650085449,
        0.9177132248878479,
        1.0
      ],
      "min": [
        -0.990759551525116,
        -0.8107892870903015,
        -0.9741945266723633,
        1.0
      ],
      "type": "VEC4"
    },
    {
      "bufferView": 2,
      "byteOffset": 164312,
      "componentType": 5126,
      "count": 1010,
      "max": [
        0.4065456688404083,
        0.36907461285591125
      ],
      "min": [
        0.17228533327579498,
        0.004189501516520977
      ],
      "type": "VEC2"
    },
    {
      "bufferView": 1,
      "byteOffset": 302208,
      "componentType": 5125,
      "count": 2856,
      "type": "SCALAR"
    },
    {
      "bufferView": 3,
      "byteOffset": 517176,
      "componentType": 5126,
      "count": 264,
      "max": [
        229.57249450683594,
        229.57249450683594,
        36.451812744140625
      ],
      "min": [
        -229.57249450683594,
        -229.57249450683594,
        20.879364013671875
      ],
      "type": "VEC3"
    },
    {
      "bufferView": 3,
      "byteOffset": 520344,
      "componentType": 5126,
      "count": 264,
      "max": [
        1.0,
        1.0,
        1.0
      ],
      "min": [
        -1.0,
        -1.0,
        -1.0
      ],
      "type": "VEC3"
    },
    {
      "bufferView": 2,
      "byteOffset": 172392,
      "componentType": 5126,
      "count": 264,
      "max": [
        0.534980833530426,
        0.9994999766349792
      ],
      "min": [
        0.0005000000237487257,
        0.0005000000237487257
      ],
      "type": "VEC2"
    },
    {
      "bufferView": 1,
      "byteOffset": 313632,
      "componentType": 5125,
      "count": 756,
      "type": "SCALAR"
    },
    {
      "bufferView": 5,
      "componentType": 5126,
      "count": 66,
      "max": [
        2.5399999618530273,
        0.9979930520057678,
        0.4631207585334778,
        0.0,
        0.1837337613105774,
        2.5399999618530273,
        0.9994093775749207,
        0.0,
        0.9869855642318726,
        0.9797410368919373,
        2.5399999618530273,
        0.0,
        20.916481018066406,
        94.79044342041016,
        155.36082458496094,
        1.0
      ],
      "min": [
        -0.9999883770942688,
        -0.9997920989990234,
        -0.4384673535823822,
        0.0,
        -0.18365642428398132,
        -0.9737608432769775,
        -0.9871560335159302,
        0.0,
        -0.9882081151008606,
        -0.4158012568950653,
        -0.07693447172641754,
        0.0,
        -23.31584358215332,
        -150.84249877929688,
        -25.423871994018555,
        1.0
      ],
      "type": "MAT4"
    },
    {
      "bufferView": 0,
      "componentType": 5123,
      "count": 19539,
      "type": "VEC4"
    },
    {
      "bufferView": 4,
      "byteOffset": 344784,
      "componentType": 5126,
      "count": 19539,
      "max": [
        1.0,
        0.4999929666519165,
        0.318994402885437,
        0.136001318693161
      ],
      "min": [
        0.34989839792251587,
        0.0,
        0.0,
        0.0
      ],
      "type": "VEC4"
    }
  ],
  "asset": {
    "extras": {
      "author": "everlasting17th (https://sketchfab.com/everlastinggrey)",
      "license": "CC-BY-4.0 (http://creativecommons.org/licenses/by/4.0/)",
      "source": "https://sketchfab.com/3d-models/templar-knight-rigged-game-ready-e57edad1bb8e4dbd8573f85695ceecde",
      "title": "Templar Knight (rigged, game-ready)"
    },
    "generator": "Sketchfab-15.25.0",
    "version": "2.0"
  },
  "bufferViews": [
    {
      "buffer": 0,
      "byteLength": 156312,
      "byteStride": 8,
      "name": "shortBufferViews",
      "target": 34962
    },
    {
      "buffer": 0,
      "byteLength": 316656,
      "byteOffset": 156312,
      "name": "floatBufferViews",
      "target": 34963
    },
    {
      "buffer": 0,
      "byteLength": 174504,
      "byteOffset": 472968,
      "byteStride": 8,
      "name": "floatBufferViews",
      "target": 34962
    },
    {
      "buffer": 0,
      "byteLength": 523512,
      "byteOffset": 647472,
      "byteStride": 12,
      "name": "floatBufferViews",
      "target": 34962
    },
    {
      "buffer": 0,
      "byteLength": 657408,
      "byteOffset": 1170984,
      "byteStride": 16,
      "name": "floatBufferViews",
      "target": 34962
    },
    {
      "buffer": 0,
      "byteLength": 4224,
      "byteOffset": 1828392,
      "name": "floatBufferViews"
    }
  ],
  "buffers": [
    {
      "byteLength": 1832616,
      "uri": "scene.bin"
    }
  ],
  "extensionsUsed": [
    "KHR_materials_specular"
  ],
  "images": [
    {
      "uri": "textures/Cylinder001__0_baseColor.png"
    },
    {
      "uri": "textures/templar_baseColor.png"
    },
    {
      "uri": "textures/templar_metallicRoughness.png"
    },
    {
      "uri": "textures/templar_normal.png"
    },
    {
      "uri": "textures/templar_specularf0.png"
    }
  ],
  "materials": [
    {
      "doubleSided": true,
      "name": "Cylinder001__0",
      "pbrMetallicRoughness": {
        "baseColorTexture": {
          "index": 0
        },
        "metallicFactor": 0.0,
        "roughnessFactor": 0.6
      }
    },
    {
      "doubleSided": true,
      "extensions": {
        "KHR_materials_specular": {
          "specularColorFactor": [
            1.0,
            1.0,
            1.0
          ],
          "specularFactor": 0.4800838255,
          "specularTexture": {
            "index": 4
          }
        }
      },
      "name": "templar",
      "normalTexture": {
        "index": 3
      },
      "pbrMetallicRoughness": {
        "baseColorTexture": {
          "index": 1
        },
        "metallicRoughnessTexture": {
          "index": 2
        }
      }
    }
  ],
  "meshes": [
    {
      "name": "knight templar_templar_0",
      "primitives": [
        {
          "attributes": {
            "JOINTS_0": 25,
            "NORMAL": 1,
            "POSITION": 0,
            "TANGENT": 2,
            "TEXCOORD_0": 3,
            "WEIGHTS_0": 26
          },
          "indices": 4,
          "material": 1,
          "mode": 4
        }
      ]
    },
    {
      "name": "Object001_templar_0",
      "primitives": [
        {
          "attributes": {
            "NORMAL": 6,
            "POSITION": 5,
            "TANGENT": 7,
            "TEXCOORD_0": 8
          },
          "indices": 9,
          "material": 1,
          "mode": 4
        }
      ]
    },
    {
      "name": "Object003_templar_0",
      "primitives": [
        {
          "attributes": {
            "NORMAL": 11,
            "POSITION": 10,
            "TANGENT": 12,
            "TEXCOORD_0": 13
          },
          "indices": 14,
          "material": 1,
          "mode": 4
        }
      ]
    },
    {
      "name": "Object004_templar_0",
      "primitives": [
        {
          "attributes": {
            "NORMAL": 16,
            "POSITION": 15,
            "TANGENT": 17,
            "TEXCOORD_0": 18
          },
          "indices": 19,
          "material": 1,
          "mode": 4
        }
      ]
    },
    {
      "name": "Cylinder001__0",
      "primitives": [
        {
          "attributes": {
            "NORMAL": 21,
            "POSITION": 20,
            "TEXCOORD_0": 22
          },
          "indices": 23,
          "material": 0,
          "mode": 4
        }
      ]
    }
  ],
  "nodes": [
    {
      "children": [
        1
      ],
      "matrix": [
        1.0,
        0.0,
        0.0,
        0.0,
        0.0,
        2.220446049250313e-16,
        -1.0,
        0.0,
        0.0,
        1.0,
        2.220446049250313e-16,
        0.0,
        0.0,
        0.0,
        0.0,
        1.0
      ],
      "name": "Sketchfab_model"
    },
    {
      "children": [
        2
      ],
      "matrix": [
        1.0,
        0.0,
        0.0,
        0.0,
        0.0,
        0.0,
        1.0,
        0.0,
        0.0,
        -1.0,
        0.0,
        0.0,
        0.0,
        0.0,
        0.0,
        1.0
      ],
      "name": "68a3bdcb63954afaba915b34a5ae0a9f.fbx"
    },
    {
      "children": [
        3
      ],
      "name": "RootNode"
    },
    {
      "children": [
        4,
        6,
        5,
        72,
        75,
        78,
        81
      ],
      "name": "Object_3"
    },
    {
      "children": [
        7
      ],
      "name": "_rootJoint"
    },
    {
      "matrix": [
        2.5399999618530273,
        0.0,
        0.0,
        0.0,
        0.0,
        2.539999961853028,
        1.1102692887288157e-07,
        0.0,
        0.0,
        -1.1102692887288157e-07,
        2.539999961853028,
        0.0,
        0.0,
        356.2616577148438,
        32.310119628906236,
        1.0
      ],
      "name": "Object_5"
    },
    {
      "mesh": 0,
      "name": "Object_6",
      "skin": 0
    },
    {
      "children": [
        8,
        62,
        67
      ],
      "name": "mixamorig:Hips_01",
      "rotation": [
        -0.008749114349484444,
        -0.004961716942489147,
        -0.0009084918419830501,
        0.9999490976333618
      ],
      "scale": [
        2.5399999618530273,
        2.5399999618530273,
        2.5399999618530273
      ],
      "translation": [
        -0.5428363084793091,
        249.1028289794922,
        3.8210370540618896
      ]
    },
    {
      "children": [
        9
      ],
      "name": "mixamorig:Spine_02",
      "rotation": [
        0.010053290985524654,
        0.003425452159717679,
        0.0140377227216959,
        0.9998450875282288
      ],
      "scale": [
        1.0,
        1.0,
        1.0000001192092896
      ],
      "translation": [
        5.960464477539063e-08,
        8.555107116699219,
        -1.6016005277633667
      ]
    },
    {
      "children": [
        10
      ],
      "name": "mixamorig:Spine1_03",
      "rotation": [
        -0.020515451207756996,
        0.0059719448909163475,
        -0.006382049527019262,
        0.9997513294219971
      ],
      "scale": [
        1.0000001192092896,
        1.0000001192092896,
        1.0
      ],
      "translation": [
        2.384185791015625e-07,
        10.154296875,
        1.1102230246251565e-16
      ]
    },
    {
      "children": [
        11,
        14,
        38
      ],
      "name": "mixamorig:Spine2_04",
      "rotation": [
        -0.020407354459166527,
        0.005464923568069935,
        -0.0068712192587554455,
        0.9997532963752747
      ],
      "scale": [
        1.0000001192092896,
        1.0000001192092896,
        1.000000238418579
      ],
      "translation": [
        0.0,
        11.605026245117188,
        -9.5367431640625e-07
      ]
    },
    {
      "children": [
        12
      ],
      "name": "mixamorig:Neck_05",
      "rotation": [
        0.07182210683822632,
        0.05074554681777954,
        0.05401858314871788,
        0.9946600794792175
      ],
      "scale": [
        1.0,
        0.9999998807907104,
        0.9999999403953552
      ],
      "translation": [
        -1.1102230246251565e-16,
        13.055595397949219,
        0.0
      ]
    },
    {
      "children": [
        13
      ],
      "name": "mixamorig:Head_06",
      "rotation": [
        0.060937706381082535,
        0.08645166456699371,
        -0.01573164202272892,
        0.994266152381897
      ],
      "scale": [
        1.0000001192092896,
        1.0000001192092896,
        1.0
      ],
      "translation": [
        -9.5367431640625e-07,
        5.7516021728515625,
        2.1540026664733887
      ]
    },
    {
      "name": "mixamorig:HeadTop_End_07",
      "rotation": [
        -7.450580596923828e-09,
        7.916241884231567e-09,
        5.204170427930421e-17,
        1.0
      ],
      "translation": [
        1.9073486328125e-06,
        24.676727294921875,
        9.241398811340332
      ]
    },
    {
      "children": [
        15
      ],
      "name": "mixamorig:LeftShoulder_08",
      "rotation": [
        -0.5566856861114502,
        -0.4540849030017853,
        0.5630072355270386,
        -0.40857169032096863
      ],
      "scale": [
        0.9999999403953552,
        0.9999998807907104,
        1.0
      ],
      "translation": [
        7.694400787353516,
        10.929908752441406,
        -0.42659950256347656
      ]
    },
    {
      "children": [
        16
      ],
      "name": "mixamorig:LeftArm_00",
      "rotation": [
        0.5205284357070923,
        -0.017204921692609787,
        -0.011162547394633293,
        0.8535979986190796
      ],
      "scale": [
        1.000000238418579,
        1.0,
        1.0000001192092896
      ],
      "translation": [
        8.881784197001252e-16,
        15.95689582824707,
        -2.842170943040401e-14
      ]
    },
    {
      "children": [
        17
      ],
      "name": "mixamorig:LeftForeArm_09",
      "rotation": [
        0.08019915223121643,
        0.061744630336761475,
        0.1171545758843422,
        0.9879425764083862
      ],
      "scale": [
        1.0,
        1.0000001192092896,
        1.0
      ],
      "translation": [
        0.0,
        21.46001434326172,
        3.814697265625e-06
      ]
    },
    {
      "children": [
        18,
        22,
        26,
        30,
        34
      ],
      "name": "mixamorig:LeftHand_010",
      "rotation": [
        -0.24166637659072876,
        0.11235661059617996,
        -0.03468191996216774,
        0.9632084369659424
      ],
      "scale": [
        1.0000001192092896,
        1.0,
        1.0
      ],
      "translation": [
        1.9073486328125e-06,
        29.09691619873047,
        -7.62939453125e-06
      ]
    },
    {
      "children": [
        19
      ],
      "name": "mixamorig:LeftHandThumb1_011",
      "rotation": [
        0.20625442266464233,
        -0.009876462630927563,
        0.028758391737937927,
        0.9780258536338806
      ],
      "scale": [
        1.0,
        0.9999998807907104,
        1.0
      ],
      "translation": [
        -3.2487993240356445,
        3.904296875,
        1.9976043701171875
      ]
    },
    {
      "children": [
        20
      ],
      "name": "mixamorig:LeftHandThumb2_012",
      "rotation": [
        0.03388972952961922,
        0.001782099949195981,
        -0.019066333770751953,
        0.9992421269416809
      ],
      "scale": [
        0.9999999403953552,
        0.9999998807907104,
        1.0
      ],
      "translation": [
        -0.5210046768188477,
        4.3350982666015625,
        3.814697265625e-06
      ]
    },
    {
      "children": [
        21
      ],
      "name": "mixamorig:LeftHandThumb3_013",
      "rotation": [
        -0.03521599993109703,
        -0.0051625994965434074,
        -0.08831869810819626,
        0.9954562783241272
      ],
      "scale": [
        1.0,
        0.9999999403953552,
        1.0
      ],
      "translation": [
        0.30739688873291016,
        4.205299377441406,
        7.105427357601002e-15
      ]
    },
    {
      "name": "mixamorig:LeftHandThumb4_014",
      "rotation": [
        7.450580596923828e-09,
        4.423782229423523e-09,
        -3.5128150388530344e-17,
        1.0
      ],
      "translation": [
        0.21359848976135254,
        3.4004898071289063,
        0.0
      ]
    },
    {
      "children": [
        23
      ],
      "name": "mixamorig:LeftHandIndex1_015",
      "rotation": [
        0.08145735412836075,
        -0.1607818454504013,
        0.02605888433754444,
        0.9832776188850403
      ],
      "scale": [
        1.0,
        0.9999999403953552,
        1.0000001192092896
      ],
      "translation": [
        -3.357799530029297,
        11.555900573730469,
        0.2317047119140625
      ]
    },
    {
      "children": [
        24
      ],
      "name": "mixamorig:LeftHandIndex2_016",
      "rotation": [
        0.16178883612155914,
        3.951538019464351e-05,
        0.0022793207317590714,
        0.986822783946991
      ],
      "scale": [
        0.9999999403953552,
        1.0,
        1.0
      ],
      "translation": [
        -0.029598236083984375,
        3.840900421142578,
        -3.814697265625e-06
      ]
    },
    {
      "children": [
        25
      ],
      "name": "mixamorig:LeftHandIndex3_017",
      "rotation": [
        0.12596026062965393,
        -0.0002400688681518659,
        -0.00039878254756331444,
        0.9920352697372437
      ],
      "scale": [
        1.0000001192092896,
        1.0000001192092896,
        1.0000001192092896
      ],
      "translation": [
        0.00969696044921875,
        3.621997833251953,
        0.0
      ]
    },
    {
      "name": "mixamorig:LeftHandIndex4_018",
      "rotation": [
        -7.4505797087454084e-09,
        1.8626447051417472e-09,
        2.9802318834981634e-08,
        1.0
      ],
      "scale": [
        1.0000001192092896,
        1.0,
        1.0
      ],
      "translation": [
        0.0198974609375,
        3.2439956665039063,
        1.9073486328125e-06
      ]
    },
    {
      "children": [
        27
      ],
      "name": "mixamorig:LeftHandMiddle1_019",
      "rotation": [
        0.11442775279283524,
        -0.018918244168162346,
        -0.01388032827526331,
        0.9931545257568359
      ],
      "translation": [
        -1.1911993026733398,
        16.052295684814453,
        -0.1540985107421875
      ]
    },
    {
      "children": [
        28
      ],
      "name": "mixamorig:LeftHandMiddle2_020",
      "rotation": [
        0.23268388211727142,
        -0.00024542349274270236,
        -0.0003484451735857874,
        0.9725522994995117
      ],
      "scale": [
        0.9999999403953552,
        0.9999998807907104,
        0.9999998807907104
      ],
      "translation": [
        -0.0177001953125,
        2.6971054077148438,
        3.814697265625e-06
      ]
    },
    {
      "children": [
        29
      ],
      "name": "mixamorig:LeftHandMiddle3_021",
      "rotation": [
        0.10123898833990097,
        -0.00017913125338964164,
        -0.003936316817998886,
        0.9948543310165405
      ],
      "scale": [
        1.0000001192092896,
        1.0000001192092896,
        1.0
      ],
      "translation": [
        0.016698837280273438,
        2.5453033447265625,
        -3.552713678800501e-15
      ]
    },
    {
      "name": "mixamorig:LeftHandMiddle4_022",
      "rotation": [
        1.4901161193847656e-08,
        5.587935447692871e-09,
        3.725290298461914e-09,
        1.0
      ],
      "scale": [
        1.0000001192092896,
        1.0,
        1.0
      ],
      "translation": [
        0.00099945068359375,
        2.1580886840820313,
        -1.9073486328125e-06
      ]
    },
    {
      "children": [
        31
      ],
      "name": "mixamorig:LeftHandRing1_023",
      "rotation": [
        0.09348025172948837,
        -0.04855918139219284,
        -0.049120716750621796,
        0.9932223558425903
      ],
      "scale": [
        1.0,
        0.9999998807907104,
        1.0
      ],
      "translation": [
        1.0771007537841797,
        16.392101287841797,
        -0.12689971923828125
      ]
    },
    {
      "children": [
        32
      ],
      "name": "mixamorig:LeftHandRing2_024",
      "rotation": [
        0.28336301445961,
        -0.0007548058056272566,
        -0.0010709668276831508,
        0.9590118527412415
      ],
      "scale": [
        1.0,
        1.0,
        1.0000001192092896
      ],
      "translation": [
        -0.010400772094726563,
        2.3268051147460938,
        -7.62939453125e-06
      ]
    },
    {
      "children": [
        33
      ],
      "name": "mixamorig:LeftHandRing3_025",
      "rotation": [
        0.1343003511428833,
        -0.0001872895227279514,
        -0.005830434616655111,
        0.9909235239028931
      ],
      "scale": [
        1.0,
        1.0000001192092896,
        1.0000001192092896
      ],
      "translation": [
        0.00370025634765625,
        2.181396484375,
        -3.552713678800501e-15
      ]
    },
    {
      "name": "mixamorig:LeftHandRing4_026",
      "rotation": [
        -3.1008182133085427e-17,
        3.725290742551124e-09,
        -1.862645371275562e-09,
        1.0
      ],
      "translation": [
        0.0067005157470703125,
        1.8358993530273438,
        1.9073486328125e-06
      ]
    },
    {
      "children": [
        35
      ],
      "name": "mixamorig:LeftHandPinky1_027",
      "rotation": [
        0.2031143754720688,
        -0.06780147552490234,
        -0.04834751784801483,
        0.9756075143814087
      ],
      "scale": [
        0.9999999403953552,
        1.0,
        1.0
      ],
      "translation": [
        3.4719014167785645,
        15.28570556640625,
        0.189300537109375
      ]
    },
    {
      "children": [
        36
      ],
      "name": "mixamorig:LeftHandPinky2_028",
      "rotation": [
        0.29501384496688843,
        -0.0008226371137425303,
        -0.0027800884563475847,
        0.9554886817932129
      ],
      "scale": [
        1.0000001192092896,
        1.0,
        1.0000001192092896
      ],
      "translation": [
        0.004300117492675781,
        2.1085968017578125,
        3.814697265625e-06
      ]
    },
    {
      "children": [
        37
      ],
      "name": "mixamorig:LeftHandPinky3_029",
      "rotation": [
        0.12982773780822754,
        0.00048537953989580274,
        -0.006216621957719326,
        0.9915170669555664
      ],
      "scale": [
        0.9999998807907104,
        0.9999999403953552,
        1.0
      ],
      "translation": [
        0.004800319671630859,
        1.77630615234375,
        3.814697265625e-06
      ]
    },
    {
      "name": "mixamorig:LeftHandPinky4_030",
      "rotation": [
        -5.941428566965054e-17,
        -5.587936335871291e-09,
        -3.903128234538122e-18,
        1.0
      ],
      "scale": [
        0.9999999403953552,
        0.9999999403953552,
        0.9999998807907104
      ],
      "translation": [
        -0.00919961929321289,
        1.3874969482421875,
        1.9073486328125e-06
      ]
    },
    {
      "children": [
        39
      ],
      "name": "mixamorig:RightShoulder_031",
      "rotation": [
        0.5535298585891724,
        -0.4545927047729492,
        0.5978958010673523,
        0.35982051491737366
      ],
      "scale": [
        1.0000001192092896,
        0.9999999403953552,
        1.0
      ],
      "translation": [
        -7.694399833679199,
        10.919593811035156,
        -0.3711986541748047
      ]
    },
    {
      "children": [
        40
      ],
      "name": "mixamorig:RightArm_032",
      "rotation": [
        0.3293227553367615,
        0.3265116512775421,
        -0.21642203629016876,
        0.8591263890266418
      ],
      "scale": [
        1.0,
        0.9999998807907104,
        1.0
      ],
      "translation": [
        -2.980232238769531e-07,
        15.956905364990234,
        -2.842170943040401e-14
      ]
    },
    {
      "children": [
        41
      ],
      "name": "mixamorig:RightForeArm_033",
      "rotation": [
        0.2784561216831207,
        -0.15776260197162628,
        -0.2757360637187958,
        0.9063899517059326
      ],
      "scale": [
        1.0,
        0.9999999403953552,
        1.0
      ],
      "translation": [
        7.62939453125e-06,
        21.474285125732422,
        -7.62939453125e-06
      ]
    },
    {
      "children": [
        42,
        46,
        50,
        54,
        58
      ],
      "name": "mixamorig:RightHand_034",
      "rotation": [
        0.05184547230601311,
        -0.5687307119369507,
        -0.1779298335313797,
        0.8013729453086853
      ],
      "scale": [
        1.0,
        0.9999998211860657,
        0.9999999403953552
      ],
      "translation": [
        -1.4210854715202004e-14,
        29.09790802001953,
        0.0
      ]
    },
    {
      "children": [
        43
      ],
      "name": "mixamorig:RightHandThumb1_035",
      "rotation": [
        0.16695967316627502,
        -0.0627422034740448,
        -0.14664286375045776,
        0.9729767441749573
      ],
      "scale": [
        1.0,
        1.0,
        0.9999998807907104
      ],
      "translation": [
        3.189605712890625,
        3.9189987182617188,
        2.0333023071289063
      ]
    },
    {
      "children": [
        44
      ],
      "name": "mixamorig:RightHandThumb2_036",
      "rotation": [
        0.0338817723095417,
        -0.001990259625017643,
        0.020238284021615982,
        0.9992189407348633
      ],
      "translation": [
        0.5446014404296875,
        4.323200225830078,
        0.0
      ]
    },
    {
      "children": [
        45
      ],
      "name": "mixamorig:RightHandThumb3_037",
      "rotation": [
        -0.0410977341234684,
        0.22869905829429626,
        0.4692195653915405,
        0.8519628643989563
      ],
      "scale": [
        1.0,
        1.0,
        0.9999998807907104
      ],
      "translation": [
        -0.2745018005371094,
        4.222503662109375,
        7.62939453125e-06
      ]
    },
    {
      "name": "mixamorig:RightHandThumb4_038",
      "rotation": [
        1.4901159417490817e-08,
        -1.3969836842875338e-08,
        8.847563570668626e-09,
        1.0
      ],
      "translation": [
        -0.27010059356689453,
        3.592601776123047,
        4.263256414560601e-14
      ]
    },
    {
      "children": [
        47
      ],
      "name": "mixamorig:RightHandIndex1_039",
      "rotation": [
        0.25576910376548767,
        -0.11826884001493454,
        -0.04035218060016632,
        0.9586273431777954
      ],
      "scale": [
        1.0,
        0.9999999403953552,
        1.0
      ],
      "translation": [
        3.5914993286132813,
        12.110300064086914,
        0.17479705810546875
      ]
    },
    {
      "children": [
        48
      ],
      "name": "mixamorig:RightHandIndex2_040",
      "rotation": [
        0.5684260129928589,
        0.05044613033533096,
        0.022287053987383842,
        0.8208838701248169
      ],
      "scale": [
        1.0000001192092896,
        1.0000001192092896,
        0.9999999403953552
      ],
      "translation": [
        0.0178985595703125,
        3.6058006286621094,
        1.4210854715202004e-14
      ]
    },
    {
      "children": [
        49
      ],
      "name": "mixamorig:RightHandIndex3_041",
      "rotation": [
        0.12597134709358215,
        0.00017609918722882867,
        0.0033019117545336485,
        0.9920284748077393
      ],
      "scale": [
        0.9999999403953552,
        0.9999998211860657,
        0.9999999403953552
      ],
      "translation": [
        -0.016201019287109375,
        3.44659423828125,
        0.0
      ]
    },
    {
      "name": "mixamorig:RightHandIndex4_042",
      "rotation": [
        -5.551115123125783e-17,
        2.2351741790771484e-08,
        7.450580596923828e-09,
        1.0
      ],
      "translation": [
        -0.001800537109375,
        2.9561920166015625,
        -7.105427357601002e-15
      ]
    },
    {
      "children": [
        51
      ],
      "name": "mixamorig:RightHandMiddle1_043",
      "rotation": [
        0.6185348629951477,
        -0.0030336438212543726,
        0.10758201032876968,
        0.7783517837524414
      ],
      "translation": [
        1.1463069915771484,
        15.990995407104492,
        -0.1562042236328125
      ]
    },
    {
      "children": [
        52
      ],
      "name": "mixamorig:RightHandMiddle2_044",
      "rotation": [
        0.23273664712905884,
        0.0004912852309644222,
        -0.005130860023200512,
        0.9725261330604553
      ],
      "scale": [
        1.0,
        1.0,
        0.9999998211860657
      ],
      "translation": [
        0.022602081298828125,
        2.8081893920898438,
        0.0
      ]
    },
    {
      "children": [
        53
      ],
      "name": "mixamorig:RightHandMiddle3_045",
      "rotation": [
        0.10124257206916809,
        0.00044173281639814377,
        0.007494283374398947,
        0.9948334693908691
      ],
      "scale": [
        1.0000001192092896,
        1.0000001192092896,
        1.0
      ],
      "translation": [
        -0.02970123291015625,
        2.5176010131835938,
        3.814697265625e-06
      ]
    },
    {
      "name": "mixamorig:RightHandMiddle4_046",
      "rotation": [
        -1.4901162970204496e-08,
        1.30385160446167e-08,
        -7.450580596923828e-09,
        1.0
      ],
      "translation": [
        0.007099151611328125,
        2.095611572265625,
        -7.105427357601002e-15
      ]
    },
    {
      "children": [
        55
      ],
      "name": "mixamorig:RightHandRing1_047",
      "rotation": [
        0.4880915582180023,
        0.14782661199569702,
        0.21082791686058044,
        0.8339457511901855
      ],
      "scale": [
        0.9999999403953552,
        1.0000001192092896,
        1.0
      ],
      "translation": [
        -1.2318000793457031,
        16.079301834106445,
        -0.01200103759765625
      ]
    },
    {
      "children": [
        56
      ],
      "name": "mixamorig:RightHandRing2_048",
      "rotation": [
        0.28338581323623657,
        0.0018706087721511722,
        -0.011642416007816792,
        0.9589335918426514
      ],
      "scale": [
        1.0,
        1.0000001192092896,
        1.0000001192092896
      ],
      "translation": [
        0.018599510192871094,
        2.4796066284179688,
        7.62939453125e-06
      ]
    },
    {
      "children": [
        57
      ],
      "name": "mixamorig:RightHandRing3_049",
      "rotation": [
        0.13437999784946442,
        0.0006842729635536671,
        0.019144052639603615,
        0.9907447099685669
      ],
      "translation": [
        -0.04000091552734375,
        2.3185882568359375,
        5.7220458984375e-06
      ]
    },
    {
      "name": "mixamorig:RightHandRing4_050",
      "rotation": [
        -4.85722573273506e-17,
        -3.725290298461914e-09,
        1.862645149230957e-09,
        1.0
      ],
      "scale": [
        1.0,
        1.0,
        0.9999998807907104
      ],
      "translation": [
        0.021402359008789063,
        1.8824081420898438,
        -3.814697265625e-06
      ]
    },
    {
      "children": [
        59
      ],
      "name": "mixamorig:RightHandPinky1_051",
      "rotation": [
        0.6070110201835632,
        0.20600485801696777,
        0.05710463225841522,
        0.7654011249542236
      ],
      "scale": [
        1.0000001192092896,
        1.0,
        1.0
      ],
      "translation": [
        -3.506000518798828,
        15.307100296020508,
        0.1811981201171875
      ]
    },
    {
      "children": [
        60
      ],
      "name": "mixamorig:RightHandPinky2_052",
      "rotation": [
        0.29502299427986145,
        0.0021842154674232006,
        -0.0010045517701655626,
        0.9554872512817383
      ],
      "scale": [
        1.0000001192092896,
        1.0000001192092896,
        0.9999998807907104
      ],
      "translation": [
        -0.013097763061523438,
        2.1872024536132813,
        7.62939453125e-06
      ]
    },
    {
      "children": [
        61
      ],
      "name": "mixamorig:RightHandPinky3_053",
      "rotation": [
        0.12982578575611115,
        -0.002308789175003767,
        0.016802722588181496,
        0.9913917779922485
      ],
      "scale": [
        1.0,
        0.9999998807907104,
        0.9999998807907104
      ],
      "translation": [
        -0.016298294067382813,
        1.7563858032226563,
        3.814697265625e-06
      ]
    },
    {
      "name": "mixamorig:RightHandPinky4_054",
      "rotation": [
        -2.7755575615628914e-17,
        -7.450580596923828e-09,
        2.2551405187698492e-17,
        1.0
      ],
      "translation": [
        0.029497146606445313,
        1.2288970947265625,
        3.814697265625e-06
      ]
    },
    {
      "children": [
        63
      ],
      "name": "mixamorig:LeftUpLeg_055",
      "rotation": [
        0.07822822034358978,
        0.21571294963359833,
        0.9689056873321533,
        -0.09257560968399048
      ],
      "scale": [
        1.0,
        1.0000001192092896,
        1.0000001192092896
      ],
      "translation": [
        8.181400299072266,
        -4.7694854736328125,
        -1.4808003902435303
      ]
    },
    {
      "children": [
        64
      ],
      "name": "mixamorig:LeftLeg_056",
      "rotation": [
        -0.4289242625236511,
        0.0031953470315784216,
        -0.0017625077161937952,
        0.9033330678939819
      ],
      "scale": [
        1.0,
        1.0,
        0.9999998807907104
      ],
      "translation": [
        1.9073486328125e-06,
        48.30812454223633,
        -3.814697265625e-06
      ]
    },
    {
      "children": [
        65
      ],
      "name": "mixamorig:LeftFoot_057",
      "rotation": [
        0.6080430746078491,
        -0.08783348649740219,
        -0.022345874458551407,
        0.7887138724327087
      ],
      "scale": [
        1.0000001192092896,
        1.0000001192092896,
        1.0000001192092896
      ],
      "translation": [
        -1.9073486328125e-06,
        42.61042022705078,
        -2.384185791015625e-06
      ]
    },
    {
      "children": [
        66
      ],
      "name": "mixamorig:LeftToeBase_058",
      "rotation": [
        0.3669544458389282,
        -0.005464162677526474,
        -0.0023626922629773617,
        0.9302198886871338
      ],
      "scale": [
        1.0,
        0.9999997615814209,
        1.0
      ],
      "translation": [
        7.105427357601002e-15,
        19.589595794677734,
        4.76837158203125e-06
      ]
    },
    {
      "name": "mixamorig:LeftToe_End_059",
      "rotation": [
        7.450580596923828e-09,
        -1.8626450382086546e-09,
        1.8510036170482635e-08,
        1.0
      ],
      "scale": [
        1.0,
        1.0,
        1.0000001192092896
      ],
      "translation": [
        -3.552713678800501e-15,
        8.611600875854492,
        0.0
      ]
    },
    {
      "children": [
        68
      ],
      "name": "mixamorig:RightUpLeg_060",
      "rotation": [
        -0.07937324047088623,
        0.19543403387069702,
        0.9758003354072571,
        0.0576118566095829
      ],
      "scale": [
        1.0000001192092896,
        0.9999999403953552,
        1.0
      ],
      "translation": [
        -8.181402206420898,
        -4.7694854736328125,
        -1.6393005847930908
      ]
    },
    {
      "children": [
        69
      ],
      "name": "mixamorig:RightLeg_061",
      "rotation": [
        -0.47102251648902893,
        0.04690577834844589,
        -0.0047120763920247555,
        0.8808606266975403
      ],
      "scale": [
        0.9999998807907104,
        1.0000001192092896,
        0.9999999403953552
      ],
      "translation": [
        1.7763568394002505e-15,
        48.654598236083984,
        0.0
      ]
    },
    {
      "children": [
        70
      ],
      "name": "mixamorig:RightFoot_062",
      "rotation": [
        0.6754235029220581,
        0.07604328542947769,
        0.0047788009978830814,
        0.7334832549095154
      ],
      "scale": [
        1.0,
        1.0,
        0.9999999403953552
      ],
      "translation": [
        -9.5367431640625e-07,
        43.66600036621094,
        -2.384185791015625e-06
      ]
    },
    {
      "children": [
        71
      ],
      "name": "mixamorig:RightToeBase_063",
      "rotation": [
        0.33672812581062317,
        0.020117199048399925,
        -0.0036062777508050203,
        0.9413802027702332
      ],
      "scale": [
        0.9999999403953552,
        0.9999998807907104,
        1.0
      ],
      "translation": [
        1.9073486328125e-06,
        20.54560089111328,
        -3.814697265625e-06
      ]
    },
    {
      "name": "mixamorig:RightToe_End_064",
      "rotation": [
        -2.9327668765732895e-17,
        -2.7939677238464355e-09,
        -9.255018085241318e-09,
        1.0
      ],
      "scale": [
        1.0,
        1.0,
        1.0000001192092896
      ],
      "translation": [
        3.552713678800501e-15,
        8.475299835205078,
        4.440892098500626e-16
      ]
    },
    {
      "children": [
        73
      ],
      "matrix": [
        0.5696411347410837,
        -0.21502239322083344,
        2.653181891257663,
        0.0,
        2.4296246773334698,
        1.150430274140171,
        -0.42840858033787665,
        0.0,
        -1.087443196206696,
        2.4577175091593557,
        0.43265660779469106,
        0.0,
        111.09365844726563,
        101.10655975341797,
        -29.70636749267578,
        1.0
      ],
      "name": "Object001"
    },
    {
      "children": [
        74
      ],
      "matrix": [
        1.0,
        0.0,
        -0.0,
        0.0,
        0.0,
        1.0,
        0.0,
        0.0,
        0.0,
        0.0,
        1.0,
        0.0,
        73.24421691894531,
        0.6679263710975647,
        20.698760986328125,
        1.0
      ],
      "name": "Object_73"
    },
    {
      "mesh": 1,
      "name": "Object001_templar_0"
    },
    {
      "children": [
        76
      ],
      "matrix": [
        2.7259163856506348,
        0.0,
        0.0,
        0.0,
        0.0,
        2.7259163856505984,
        4.4410816706850076e-07,
        0.0,
        0.0,
        -4.4410816706850076e-07,
        2.7259163856505984,
        0.0,
        0.0,
        355.54559326171875,
        -172.43984985351563,
        1.0
      ],
      "name": "Object003"
    },
    {
      "children": [
        77
      ],
      "matrix": [
        1.0,
        0.0,
        -0.0,
        0.0,
        0.0,
        1.0,
        0.0,
        0.0,
        0.0,
        0.0,
        1.0,
        0.0,
        72.77168273925781,
        -3.7104244232177734,
        246.17416381835938,
        1.0
      ],
      "name": "Object_76"
    },
    {
      "mesh": 2,
      "name": "Object003_templar_0"
    },
    {
      "children": [
        79
      ],
      "matrix": [
        1.1360540909764998,
        -0.3860686192910197,
        2.43627605324914,
        0.0,
        1.9903220697145256,
        1.7278991922292135,
        -0.6542878719002831,
        0.0,
        -1.4570897723628782,
        2.059230082760729,
        1.0057714553319765,
        0.0,
        -77.78704833984375,
        133.95541381835938,
        109.28355407714844,
        1.0
      ],
      "name": "Object004"
    },
    {
      "children": [
        80
      ],
      "matrix": [
        1.0,
        0.0,
        -0.0,
        0.0,
        0.0,
        1.0,
        0.0,
        0.0,
        0.0,
        0.0,
        1.0,
        0.0,
        -41.019622802734375,
        54.7220344543457,
        24.81319236755371,
        1.0
      ],
      "name": "Object_79"
    },
    {
      "mesh": 3,
      "name": "Object004_templar_0"
    },
    {
      "children": [
        82
      ],
      "matrix": [
        1.0,
        0.0,
        0.0,
        0.0,
        0.0,
        2.220446049250313e-16,
        -1.0,
        0.0,
        0.0,
        1.0,
        2.220446049250313e-16,
        0.0,
        0.0,
        -34.895782470703125,
        0.0,
        1.0
      ],
      "name": "Cylinder001"
    },
    {
      "mesh": 4,
      "name": "Cylinder001__0"
    }
  ],
  "samplers": [
    {
      "magFilter": 9729,
      "minFilter": 9987,
      "wrapS": 10497,
      "wrapT": 10497
    }
  ],
  "scene": 0,
  "scenes": [
    {
      "name": "Sketchfab_Scene",
      "nodes": [
        0
      ]
    }
  ],
  "skins": [
    {
      "inverseBindMatrices": 24,
      "joints": [
        4,
        7,
        8,
        9,
        10,
        11,
        12,
        13,
        14,
        15,
        16,
        17,
        18,
        19,
        20,
        21,
        22,
        23,
        24,
        25,
        26,
        27,
        28,
        29,
        30,
        31,
        32,
        33,
        34,
        35,
        36,
        37,
        38,
        39,
        40,
        41,
        42,
        43,
        44,
        45,
        46,
        47,
        48,
        49,
        50,
        51,
        52,
        53,
        54,
        55,
        56,
        57,
        58,
        59,
        60,
        61,
        62,
        63,
        64,
        65,
        66,
        67,
        68,
        69,
        70,
        71
      ],
      "skeleton": 4
    }
  ],
  "textures": [
    {
      "sampler": 0,
      "source": 0
    },
    {
      "sampler": 0,
      "source": 1
    },
    {
      "sampler": 0,
      "source": 2
    },
    {
      "sampler": 0,
      "source": 3
    },
    {
      "sampler": 0,
      "source": 4
    }
  ]
}
