mtllib villager-hut.mtl
o stone_plinth
usemtl fieldstone
v 1.6749999523162842 0.18000000357627868 1.375
v 1.6749999523162842 0.18000000357627868 -1.375
v 1.6749999523162842 -3.5762786898541066e-9 1.375
v 1.6749999523162842 -3.5762786898541066e-9 -1.375
v -1.6749999523162842 0.18000000357627868 -1.375
v -1.6749999523162842 0.18000000357627868 1.375
v -1.6749999523162842 -3.5762786898541066e-9 -1.375
v -1.6749999523162842 -3.5762786898541066e-9 1.375
v -1.6749999523162842 0.18000000357627868 -1.375
v 1.6749999523162842 0.18000000357627868 -1.375
v -1.6749999523162842 0.18000000357627868 1.375
v 1.6749999523162842 0.18000000357627868 1.375
v -1.6749999523162842 -3.5762786898541066e-9 1.375
v 1.6749999523162842 -3.5762786898541066e-9 1.375
v -1.6749999523162842 -3.5762786898541066e-9 -1.375
v 1.6749999523162842 -3.5762786898541066e-9 -1.375
v -1.6749999523162842 0.18000000357627868 1.375
v 1.6749999523162842 0.18000000357627868 1.375
v -1.6749999523162842 -3.5762786898541066e-9 1.375
v 1.6749999523162842 -3.5762786898541066e-9 1.375
v 1.6749999523162842 0.18000000357627868 -1.375
v -1.6749999523162842 0.18000000357627868 -1.375
v 1.6749999523162842 -3.5762786898541066e-9 -1.375
v -1.6749999523162842 -3.5762786898541066e-9 -1.375
vt 0 1
vt 1 1
vt 0 0
vt 1 0
vt 0 1
vt 1 1
vt 0 0
vt 1 0
vt 0 1
vt 1 1
vt 0 0
vt 1 0
vt 0 1
vt 1 1
vt 0 0
vt 1 0
vt 0 1
vt 1 1
vt 0 0
vt 1 0
vt 0 1
vt 1 1
vt 0 0
vt 1 0
vn 1 0 0
vn 1 0 0
vn 1 0 0
vn 1 0 0
vn -1 0 0
vn -1 0 0
vn -1 0 0
vn -1 0 0
vn 0 1 0
vn 0 1 0
vn 0 1 0
vn 0 1 0
vn 0 -1 0
vn 0 -1 0
vn 0 -1 0
vn 0 -1 0
vn 0 0 1
vn 0 0 1
vn 0 0 1
vn 0 0 1
vn 0 0 -1
vn 0 0 -1
vn 0 0 -1
vn 0 0 -1
f 1/1/1 3/3/3 2/2/2
f 3/3/3 4/4/4 2/2/2
f 5/5/5 7/7/7 6/6/6
f 7/7/7 8/8/8 6/6/6
f 9/9/9 11/11/11 10/10/10
f 11/11/11 12/12/12 10/10/10
f 13/13/13 15/15/15 14/14/14
f 15/15/15 16/16/16 14/14/14
f 17/17/17 19/19/19 18/18/18
f 19/19/19 20/20/20 18/18/18
f 21/21/21 23/23/23 22/22/22
f 23/23/23 24/24/24 22/22/22
o wall_stone_course
usemtl fieldstone
v 1.600000023841858 0.6799999999999999 1.2999999523162842
v 1.600000023841858 0.6799999999999999 -1.2999999523162842
v 1.600000023841858 0.18 1.2999999523162842
v 1.600000023841858 0.18 -1.2999999523162842
v -1.600000023841858 0.6799999999999999 -1.2999999523162842
v -1.600000023841858 0.6799999999999999 1.2999999523162842
v -1.600000023841858 0.18 -1.2999999523162842
v -1.600000023841858 0.18 1.2999999523162842
v -1.600000023841858 0.6799999999999999 -1.2999999523162842
v 1.600000023841858 0.6799999999999999 -1.2999999523162842
v -1.600000023841858 0.6799999999999999 1.2999999523162842
v 1.600000023841858 0.6799999999999999 1.2999999523162842
v -1.600000023841858 0.18 1.2999999523162842
v 1.600000023841858 0.18 1.2999999523162842
v -1.600000023841858 0.18 -1.2999999523162842
v 1.600000023841858 0.18 -1.2999999523162842
v -1.600000023841858 0.6799999999999999 1.2999999523162842
v 1.600000023841858 0.6799999999999999 1.2999999523162842
v -1.600000023841858 0.18 1.2999999523162842
v 1.600000023841858 0.18 1.2999999523162842
v 1.600000023841858 0.6799999999999999 -1.2999999523162842
v -1.600000023841858 0.6799999999999999 -1.2999999523162842
v 1.600000023841858 0.18 -1.2999999523162842
v -1.600000023841858 0.18 -1.2999999523162842
vt 0 1
vt 1 1
vt 0 0
vt 1 0
vt 0 1
vt 1 1
vt 0 0
vt 1 0
vt 0 1
vt 1 1
vt 0 0
vt 1 0
vt 0 1
vt 1 1
vt 0 0
vt 1 0
vt 0 1
vt 1 1
vt 0 0
vt 1 0
vt 0 1
vt 1 1
vt 0 0
vt 1 0
vn 1 0 0
vn 1 0 0
vn 1 0 0
vn 1 0 0
vn -1 0 0
vn -1 0 0
vn -1 0 0
vn -1 0 0
vn 0 1 0
vn 0 1 0
vn 0 1 0
vn 0 1 0
vn 0 -1 0
vn 0 -1 0
vn 0 -1 0
vn 0 -1 0
vn 0 0 1
vn 0 0 1
vn 0 0 1
vn 0 0 1
vn 0 0 -1
vn 0 0 -1
vn 0 0 -1
vn 0 0 -1
f 25/25/25 27/27/27 26/26/26
f 27/27/27 28/28/28 26/26/26
f 29/29/29 31/31/31 30/30/30
f 31/31/31 32/32/32 30/30/30
f 33/33/33 35/35/35 34/34/34
f 35/35/35 36/36/36 34/34/34
f 37/37/37 39/39/39 38/38/38
f 39/39/39 40/40/40 38/38/38
f 41/41/41 43/43/43 42/42/42
f 43/43/43 44/44/44 42/42/42
f 45/45/45 47/47/47 46/46/46
f 47/47/47 48/48/48 46/46/46
o wall_earthen_plaster
usemtl earthen_plaster
v 1.590000033378601 1.8800000238418577 1.2899999618530273
v 1.590000033378601 1.8800000238418577 -1.2899999618530273
v 1.590000033378601 0.6799999761581419 1.2899999618530273
v 1.590000033378601 0.6799999761581419 -1.2899999618530273
v -1.590000033378601 1.8800000238418577 -1.2899999618530273
v -1.590000033378601 1.8800000238418577 1.2899999618530273
v -1.590000033378601 0.6799999761581419 -1.2899999618530273
v -1.590000033378601 0.6799999761581419 1.2899999618530273
v -1.590000033378601 1.8800000238418577 -1.2899999618530273
v 1.590000033378601 1.8800000238418577 -1.2899999618530273
v -1.590000033378601 1.8800000238418577 1.2899999618530273
v 1.590000033378601 1.8800000238418577 1.2899999618530273
v -1.590000033378601 0.6799999761581419 1.2899999618530273
v 1.590000033378601 0.6799999761581419 1.2899999618530273
v -1.590000033378601 0.6799999761581419 -1.2899999618530273
v 1.590000033378601 0.6799999761581419 -1.2899999618530273
v -1.590000033378601 1.8800000238418577 1.2899999618530273
v 1.590000033378601 1.8800000238418577 1.2899999618530273
v -1.590000033378601 0.6799999761581419 1.2899999618530273
v 1.590000033378601 0.6799999761581419 1.2899999618530273
v 1.590000033378601 1.8800000238418577 -1.2899999618530273
v -1.590000033378601 1.8800000238418577 -1.2899999618530273
v 1.590000033378601 0.6799999761581419 -1.2899999618530273
v -1.590000033378601 0.6799999761581419 -1.2899999618530273
vt 0 1
vt 1 1
vt 0 0
vt 1 0
vt 0 1
vt 1 1
vt 0 0
vt 1 0
vt 0 1
vt 1 1
vt 0 0
vt 1 0
vt 0 1
vt 1 1
vt 0 0
vt 1 0
vt 0 1
vt 1 1
vt 0 0
vt 1 0
vt 0 1
vt 1 1
vt 0 0
vt 1 0
vn 1 0 0
vn 1 0 0
vn 1 0 0
vn 1 0 0
vn -1 0 0
vn -1 0 0
vn -1 0 0
vn -1 0 0
vn 0 1 0
vn 0 1 0
vn 0 1 0
vn 0 1 0
vn 0 -1 0
vn 0 -1 0
vn 0 -1 0
vn 0 -1 0
vn 0 0 1
vn 0 0 1
vn 0 0 1
vn 0 0 1
vn 0 0 -1
vn 0 0 -1
vn 0 0 -1
vn 0 0 -1
f 49/49/49 51/51/51 50/50/50
f 51/51/51 52/52/52 50/50/50
f 53/53/53 55/55/55 54/54/54
f 55/55/55 56/56/56 54/54/54
f 57/57/57 59/59/59 58/58/58
f 59/59/59 60/60/60 58/58/58
f 61/61/61 63/63/63 62/62/62
f 63/63/63 64/64/64 62/62/62
f 65/65/65 67/67/67 66/66/66
f 67/67/67 68/68/68 66/66/66
f 69/69/69 71/71/71 70/70/70
f 71/71/71 72/72/72 70/70/70
o door_wood
usemtl timber
v -0.11999998569488524 1.329999988079071 1.3599999993294478
v -0.11999998569488524 1.329999988079071 1.3000000006705523
v -0.11999998569488524 0.18000001192092885 1.3599999993294478
v -0.11999998569488524 0.18000001192092885 1.3000000006705523
v -0.8400000143051147 1.329999988079071 1.3000000006705523
v -0.8400000143051147 1.329999988079071 1.3599999993294478
v -0.8400000143051147 0.18000001192092885 1.3000000006705523
v -0.8400000143051147 0.18000001192092885 1.3599999993294478
v -0.8400000143051147 1.329999988079071 1.3000000006705523
v -0.11999998569488524 1.329999988079071 1.3000000006705523
v -0.8400000143051147 1.329999988079071 1.3599999993294478
v -0.11999998569488524 1.329999988079071 1.3599999993294478
v -0.8400000143051147 0.18000001192092885 1.3599999993294478
v -0.11999998569488524 0.18000001192092885 1.3599999993294478
v -0.8400000143051147 0.18000001192092885 1.3000000006705523
v -0.11999998569488524 0.18000001192092885 1.3000000006705523
v -0.8400000143051147 1.329999988079071 1.3599999993294478
v -0.11999998569488524 1.329999988079071 1.3599999993294478
v -0.8400000143051147 0.18000001192092885 1.3599999993294478
v -0.11999998569488524 0.18000001192092885 1.3599999993294478
v -0.11999998569488524 1.329999988079071 1.3000000006705523
v -0.8400000143051147 1.329999988079071 1.3000000006705523
v -0.11999998569488524 0.18000001192092885 1.3000000006705523
v -0.8400000143051147 0.18000001192092885 1.3000000006705523
vt 0 1
vt 1 1
vt 0 0
vt 1 0
vt 0 1
vt 1 1
vt 0 0
vt 1 0
vt 0 1
vt 1 1
vt 0 0
vt 1 0
vt 0 1
vt 1 1
vt 0 0
vt 1 0
vt 0 1
vt 1 1
vt 0 0
vt 1 0
vt 0 1
vt 1 1
vt 0 0
vt 1 0
vn 1 0 0
vn 1 0 0
vn 1 0 0
vn 1 0 0
vn -1 0 0
vn -1 0 0
vn -1 0 0
vn -1 0 0
vn 0 1 0
vn 0 1 0
vn 0 1 0
vn 0 1 0
vn 0 -1 0
vn 0 -1 0
vn 0 -1 0
vn 0 -1 0
vn 0 0 1
vn 0 0 1
vn 0 0 1
vn 0 0 1
vn 0 0 -1
vn 0 0 -1
vn 0 0 -1
vn 0 0 -1
f 73/73/73 75/75/75 74/74/74
f 75/75/75 76/76/76 74/74/74
f 77/77/77 79/79/79 78/78/78
f 79/79/79 80/80/80 78/78/78
f 81/81/81 83/83/83 82/82/82
f 83/83/83 84/84/84 82/82/82
f 85/85/85 87/87/87 86/86/86
f 87/87/87 88/88/88 86/86/86
f 89/89/89 91/91/91 90/90/90
f 91/91/91 92/92/92 90/90/90
f 93/93/93 95/95/95 94/94/94
f 95/95/95 96/96/96 94/94/94
o door_lintel
usemtl timber
v -0.04000000238418577 1.430000000745058 1.4200000002980233
v -0.04000000238418577 1.430000000745058 1.2799999997019769
v -0.04000000238418577 1.3299999992549418 1.4200000002980233
v -0.04000000238418577 1.3299999992549418 1.2799999997019769
v -0.9199999976158142 1.430000000745058 1.2799999997019769
v -0.9199999976158142 1.430000000745058 1.4200000002980233
v -0.9199999976158142 1.3299999992549418 1.2799999997019769
v -0.9199999976158142 1.3299999992549418 1.4200000002980233
v -0.9199999976158142 1.430000000745058 1.2799999997019769
v -0.04000000238418577 1.430000000745058 1.2799999997019769
v -0.9199999976158142 1.430000000745058 1.4200000002980233
v -0.04000000238418577 1.430000000745058 1.4200000002980233
v -0.9199999976158142 1.3299999992549418 1.4200000002980233
v -0.04000000238418577 1.3299999992549418 1.4200000002980233
v -0.9199999976158142 1.3299999992549418 1.2799999997019769
v -0.04000000238418577 1.3299999992549418 1.2799999997019769
v -0.9199999976158142 1.430000000745058 1.4200000002980233
v -0.04000000238418577 1.430000000745058 1.4200000002980233
v -0.9199999976158142 1.3299999992549418 1.4200000002980233
v -0.04000000238418577 1.3299999992549418 1.4200000002980233
v -0.04000000238418577 1.430000000745058 1.2799999997019769
v -0.9199999976158142 1.430000000745058 1.2799999997019769
v -0.04000000238418577 1.3299999992549418 1.2799999997019769
v -0.9199999976158142 1.3299999992549418 1.2799999997019769
vt 0 1
vt 1 1
vt 0 0
vt 1 0
vt 0 1
vt 1 1
vt 0 0
vt 1 0
vt 0 1
vt 1 1
vt 0 0
vt 1 0
vt 0 1
vt 1 1
vt 0 0
vt 1 0
vt 0 1
vt 1 1
vt 0 0
vt 1 0
vt 0 1
vt 1 1
vt 0 0
vt 1 0
vn 1 0 0
vn 1 0 0
vn 1 0 0
vn 1 0 0
vn -1 0 0
vn -1 0 0
vn -1 0 0
vn -1 0 0
vn 0 1 0
vn 0 1 0
vn 0 1 0
vn 0 1 0
vn 0 -1 0
vn 0 -1 0
vn 0 -1 0
vn 0 -1 0
vn 0 0 1
vn 0 0 1
vn 0 0 1
vn 0 0 1
vn 0 0 -1
vn 0 0 -1
vn 0 0 -1
vn 0 0 -1
f 97/97/97 99/99/99 98/98/98
f 99/99/99 100/100/100 98/98/98
f 101/101/101 103/103/103 102/102/102
f 103/103/103 104/104/104 102/102/102
f 105/105/105 107/107/107 106/106/106
f 107/107/107 108/108/108 106/106/106
f 109/109/109 111/111/111 110/110/110
f 111/111/111 112/112/112 110/110/110
f 113/113/113 115/115/115 114/114/114
f 115/115/115 116/116/116 114/114/114
f 117/117/117 119/119/119 118/118/118
f 119/119/119 120/120/120 118/118/118
o window_shutter
usemtl timber
v 1.1059999934434892 1.549999993443489 1.355000000372529
v 1.1059999934434892 1.549999993443489 1.304999999627471
v 1.1059999934434892 1.1300000065565108 1.355000000372529
v 1.1059999934434892 1.1300000065565108 1.304999999627471
v 0.686000006556511 1.549999993443489 1.304999999627471
v 0.686000006556511 1.549999993443489 1.355000000372529
v 0.686000006556511 1.1300000065565108 1.304999999627471
v 0.686000006556511 1.1300000065565108 1.355000000372529
v 0.686000006556511 1.549999993443489 1.304999999627471
v 1.1059999934434892 1.549999993443489 1.304999999627471
v 0.686000006556511 1.549999993443489 1.355000000372529
v 1.1059999934434892 1.549999993443489 1.355000000372529
v 0.686000006556511 1.1300000065565108 1.355000000372529
v 1.1059999934434892 1.1300000065565108 1.355000000372529
v 0.686000006556511 1.1300000065565108 1.304999999627471
v 1.1059999934434892 1.1300000065565108 1.304999999627471
v 0.686000006556511 1.549999993443489 1.355000000372529
v 1.1059999934434892 1.549999993443489 1.355000000372529
v 0.686000006556511 1.1300000065565108 1.355000000372529
v 1.1059999934434892 1.1300000065565108 1.355000000372529
v 1.1059999934434892 1.549999993443489 1.304999999627471
v 0.686000006556511 1.549999993443489 1.304999999627471
v 1.1059999934434892 1.1300000065565108 1.304999999627471
v 0.686000006556511 1.1300000065565108 1.304999999627471
vt 0 1
vt 1 1
vt 0 0
vt 1 0
vt 0 1
vt 1 1
vt 0 0
vt 1 0
vt 0 1
vt 1 1
vt 0 0
vt 1 0
vt 0 1
vt 1 1
vt 0 0
vt 1 0
vt 0 1
vt 1 1
vt 0 0
vt 1 0
vt 0 1
vt 1 1
vt 0 0
vt 1 0
vn 1 0 0
vn 1 0 0
vn 1 0 0
vn 1 0 0
vn -1 0 0
vn -1 0 0
vn -1 0 0
vn -1 0 0
vn 0 1 0
vn 0 1 0
vn 0 1 0
vn 0 1 0
vn 0 -1 0
vn 0 -1 0
vn 0 -1 0
vn 0 -1 0
vn 0 0 1
vn 0 0 1
vn 0 0 1
vn 0 0 1
vn 0 0 -1
vn 0 0 -1
vn 0 0 -1
vn 0 0 -1
f 121/121/121 123/123/123 122/122/122
f 123/123/123 124/124/124 122/122/122
f 125/125/125 127/127/127 126/126/126
f 127/127/127 128/128/128 126/126/126
f 129/129/129 131/131/131 130/130/130
f 131/131/131 132/132/132 130/130/130
f 133/133/133 135/135/135 134/134/134
f 135/135/135 136/136/136 134/134/134
f 137/137/137 139/139/139 138/138/138
f 139/139/139 140/140/140 138/138/138
f 141/141/141 143/143/143 142/142/142
f 143/143/143 144/144/144 142/142/142
o entry_step
usemtl fieldstone
v 0.07000001192092897 0.14000000029802323 1.9
v 0.07000001192092897 0.14000000029802323 1.4
v 0.07000001192092897 -2.98023217215615e-10 1.9
v 0.07000001192092897 -2.98023217215615e-10 1.4
v -1.030000011920929 0.14000000029802323 1.4
v -1.030000011920929 0.14000000029802323 1.9
v -1.030000011920929 -2.98023217215615e-10 1.4
v -1.030000011920929 -2.98023217215615e-10 1.9
v -1.030000011920929 0.14000000029802323 1.4
v 0.07000001192092897 0.14000000029802323 1.4
v -1.030000011920929 0.14000000029802323 1.9
v 0.07000001192092897 0.14000000029802323 1.9
v -1.030000011920929 -2.98023217215615e-10 1.9
v 0.07000001192092897 -2.98023217215615e-10 1.9
v -1.030000011920929 -2.98023217215615e-10 1.4
v 0.07000001192092897 -2.98023217215615e-10 1.4
v -1.030000011920929 0.14000000029802323 1.9
v 0.07000001192092897 0.14000000029802323 1.9
v -1.030000011920929 -2.98023217215615e-10 1.9
v 0.07000001192092897 -2.98023217215615e-10 1.9
v 0.07000001192092897 0.14000000029802323 1.4
v -1.030000011920929 0.14000000029802323 1.4
v 0.07000001192092897 -2.98023217215615e-10 1.4
v -1.030000011920929 -2.98023217215615e-10 1.4
vt 0 1
vt 1 1
vt 0 0
vt 1 0
vt 0 1
vt 1 1
vt 0 0
vt 1 0
vt 0 1
vt 1 1
vt 0 0
vt 1 0
vt 0 1
vt 1 1
vt 0 0
vt 1 0
vt 0 1
vt 1 1
vt 0 0
vt 1 0
vt 0 1
vt 1 1
vt 0 0
vt 1 0
vn 1 0 0
vn 1 0 0
vn 1 0 0
vn 1 0 0
vn -1 0 0
vn -1 0 0
vn -1 0 0
vn -1 0 0
vn 0 1 0
vn 0 1 0
vn 0 1 0
vn 0 1 0
vn 0 -1 0
vn 0 -1 0
vn 0 -1 0
vn 0 -1 0
vn 0 0 1
vn 0 0 1
vn 0 0 1
vn 0 0 1
vn 0 0 -1
vn 0 0 -1
vn 0 0 -1
vn 0 0 -1
f 145/145/145 147/147/147 146/146/146
f 147/147/147 148/148/148 146/146/146
f 149/149/149 151/151/151 150/150/150
f 151/151/151 152/152/152 150/150/150
f 153/153/153 155/155/155 154/154/154
f 155/155/155 156/156/156 154/154/154
f 157/157/157 159/159/159 158/158/158
f 159/159/159 160/160/160 158/158/158
f 161/161/161 163/163/163 162/162/162
f 163/163/163 164/164/164 162/162/162
f 165/165/165 167/167/167 166/166/166
f 167/167/167 168/168/168 166/166/166
o entry_overhang
usemtl dark_thatch
v 0.1699999761581421 1.8119664771500976 2.091586727510078
v 0.1699999761581421 1.7073597862000196 1.3994469847419182
v 0.1699999761581421 1.7526402137999804 2.1005530152580816
v 0.1699999761581421 1.6480335228499023 1.408413272489922
v -1.129999976158142 1.7073597862000196 1.3994469847419182
v -1.129999976158142 1.8119664771500976 2.091586727510078
v -1.129999976158142 1.6480335228499023 1.408413272489922
v -1.129999976158142 1.7526402137999804 2.1005530152580816
v -1.129999976158142 1.7073597862000196 1.3994469847419182
v 0.1699999761581421 1.7073597862000196 1.3994469847419182
v -1.129999976158142 1.8119664771500976 2.091586727510078
v 0.1699999761581421 1.8119664771500976 2.091586727510078
v -1.129999976158142 1.7526402137999804 2.1005530152580816
v 0.1699999761581421 1.7526402137999804 2.1005530152580816
v -1.129999976158142 1.6480335228499023 1.408413272489922
v 0.1699999761581421 1.6480335228499023 1.408413272489922
v -1.129999976158142 1.8119664771500976 2.091586727510078
v 0.1699999761581421 1.8119664771500976 2.091586727510078
v -1.129999976158142 1.7526402137999804 2.1005530152580816
v 0.1699999761581421 1.7526402137999804 2.1005530152580816
v 0.1699999761581421 1.7073597862000196 1.3994469847419182
v -1.129999976158142 1.7073597862000196 1.3994469847419182
v 0.1699999761581421 1.6480335228499023 1.408413272489922
v -1.129999976158142 1.6480335228499023 1.408413272489922
vt 0 1
vt 1 1
vt 0 0
vt 1 0
vt 0 1
vt 1 1
vt 0 0
vt 1 0
vt 0 1
vt 1 1
vt 0 0
vt 1 0
vt 0 1
vt 1 1
vt 0 0
vt 1 0
vt 0 1
vt 1 1
vt 0 0
vt 1 0
vt 0 1
vt 1 1
vt 0 0
vt 1 0
vn 1 0 0
vn 1 0 0
vn 1 0 0
vn 1 0 0
vn -1 0 0
vn -1 0 0
vn -1 0 0
vn -1 0 0
vn 0 0.9887710779360425 -0.14943813247359924
vn 0 0.9887710779360425 -0.14943813247359924
vn 0 0.9887710779360425 -0.14943813247359924
vn 0 0.9887710779360425 -0.14943813247359924
vn 0 -0.9887710779360425 0.14943813247359924
vn 0 -0.9887710779360425 0.14943813247359924
vn 0 -0.9887710779360425 0.14943813247359924
vn 0 -0.9887710779360425 0.14943813247359924
vn 0 0.14943813247359924 0.9887710779360425
vn 0 0.14943813247359924 0.9887710779360425
vn 0 0.14943813247359924 0.9887710779360425
vn 0 0.14943813247359924 0.9887710779360425
vn 0 -0.14943813247359924 -0.9887710779360425
vn 0 -0.14943813247359924 -0.9887710779360425
vn 0 -0.14943813247359924 -0.9887710779360425
vn 0 -0.14943813247359924 -0.9887710779360425
f 169/169/169 171/171/171 170/170/170
f 171/171/171 172/172/172 170/170/170
f 173/173/173 175/175/175 174/174/174
f 175/175/175 176/176/176 174/174/174
f 177/177/177 179/179/179 178/178/178
f 179/179/179 180/180/180 178/178/178
f 181/181/181 183/183/183 182/182/182
f 183/183/183 184/184/184 182/182/182
f 185/185/185 187/187/187 186/186/186
f 187/187/187 188/188/188 186/186/186
f 189/189/189 191/191/191 190/190/190
f 191/191/191 192/192/192 190/190/190
o entry_post_left
usemtl timber
v -0.98 1.414999988079071 2.0099999986588957
v -0.9375735926628113 1.414999988079071 1.9924264073371887
v -0.9200000013411045 1.414999988079071 1.95
v -0.9375735926628113 1.414999988079071 1.9075735926628112
v -0.98 1.414999988079071 1.8900000013411045
v -1.0224264073371887 1.414999988079071 1.9075735926628112
v -1.0399999986588955 1.414999988079071 1.95
v -1.0224264073371887 1.414999988079071 1.9924264073371887
v -0.98 1.414999988079071 2.0099999986588957
v -0.98 0.14000001192092892 2.0200000002980234
v -0.9305025260150432 0.14000001192092892 1.9994974739849567
v -0.9099999997019768 0.14000001192092892 1.95
v -0.9305025260150432 0.14000001192092892 1.9005025260150432
v -0.98 0.14000001192092892 1.8799999997019767
v -1.0294974739849567 0.14000001192092892 1.9005025260150432
v -1.0500000002980232 0.14000001192092892 1.95
v -1.0294974739849567 0.14000001192092892 1.9994974739849567
v -0.98 0.14000001192092892 2.0200000002980234
v -0.98 1.414999988079071 1.95
v -0.98 1.414999988079071 1.95
v -0.98 1.414999988079071 1.95
v -0.98 1.414999988079071 1.95
v -0.98 1.414999988079071 1.95
v -0.98 1.414999988079071 1.95
v -0.98 1.414999988079071 1.95
v -0.98 1.414999988079071 1.95
v -0.98 1.414999988079071 2.0099999986588957
v -0.9375735926628113 1.414999988079071 1.9924264073371887
v -0.9200000013411045 1.414999988079071 1.95
v -0.9375735926628113 1.414999988079071 1.9075735926628112
v -0.98 1.414999988079071 1.8900000013411045
v -1.0224264073371887 1.414999988079071 1.9075735926628112
v -1.0399999986588955 1.414999988079071 1.95
v -1.0224264073371887 1.414999988079071 1.9924264073371887
v -0.98 1.414999988079071 2.0099999986588957
v -0.98 0.14000001192092892 1.95
v -0.98 0.14000001192092892 1.95
v -0.98 0.14000001192092892 1.95
v -0.98 0.14000001192092892 1.95
v -0.98 0.14000001192092892 1.95
v -0.98 0.14000001192092892 1.95
v -0.98 0.14000001192092892 1.95
v -0.98 0.14000001192092892 1.95
v -0.98 0.14000001192092892 2.0200000002980234
v -0.9305025260150432 0.14000001192092892 1.9994974739849567
v -0.9099999997019768 0.14000001192092892 1.95
v -0.9305025260150432 0.14000001192092892 1.9005025260150432
v -0.98 0.14000001192092892 1.8799999997019767
v -1.0294974739849567 0.14000001192092892 1.9005025260150432
v -1.0500000002980232 0.14000001192092892 1.95
v -1.0294974739849567 0.14000001192092892 1.9994974739849567
v -0.98 0.14000001192092892 2.0200000002980234
vt 0 1
vt 0.125 1
vt 0.25 1
vt 0.375 1
vt 0.5 1
vt 0.625 1
vt 0.75 1
vt 0.875 1
vt 1 1
vt 0 0
vt 0.125 0
vt 0.25 0
vt 0.375 0
vt 0.5 0
vt 0.625 0
vt 0.75 0
vt 0.875 0
vt 1 0
vt 0.5 0.5
vt 0.5 0.5
vt 0.5 0.5
vt 0.5 0.5
vt 0.5 0.5
vt 0.5 0.5
vt 0.5 0.5
vt 0.5 0.5
vt 1 0.5
vt 0.8535534143447876 0.8535534143447876
vt 0.5 1
vt 0.1464466154575348 0.8535534143447876
vt 0 0.5
vt 0.1464466154575348 0.1464466154575348
vt 0.5 0
vt 0.8535534143447876 0.1464466154575348
vt 1 0.5
vt 0.5 0.5
vt 0.5 0.5
vt 0.5 0.5
vt 0.5 0.5
vt 0.5 0.5
vt 0.5 0.5
vt 0.5 0.5
vt 0.5 0.5
vt 1 0.5
vt 0.8535534143447876 0.1464466154575348
vt 0.5 0
vt 0.1464466154575348 0.1464466154575348
vt 0 0.5
vt 0.1464466154575348 0.8535534143447876
vt 0.5 1
vt 0.8535534143447876 0.8535534143447876
vt 1 0.5
vn 0 0.007842895575010776 0.9999692440215348
vn 0.707085033424381 0.007842895797091066 0.707085033424381
vn 0.9999692440215348 0.007842895575010776 6.123045665857858e-17
vn 0.707085033424381 0.007842895797091066 -0.707085033424381
vn 1.2246091331715715e-16 0.007842895575010776 -0.9999692440215348
vn -0.707085033424381 0.007842895797091066 -0.707085033424381
vn -0.9999692440215348 0.007842895575010776 -1.8369137659318063e-16
vn -0.707085033424381 0.007842895797091066 0.707085033424381
vn -2.449218266343143e-16 0.007842895575010776 0.9999692440215348
vn 0 0.007842895575010776 0.9999692440215348
vn 0.707085033424381 0.007842895797091066 0.707085033424381
vn 0.9999692440215348 0.007842895575010776 6.123045665857858e-17
vn 0.707085033424381 0.007842895797091066 -0.707085033424381
vn 1.2246091331715715e-16 0.007842895575010776 -0.9999692440215348
vn -0.707085033424381 0.007842895797091066 -0.707085033424381
vn -0.9999692440215348 0.007842895575010776 -1.8369137659318063e-16
vn -0.707085033424381 0.007842895797091066 0.707085033424381
vn -2.449218266343143e-16 0.007842895575010776 0.9999692440215348
vn 0 1 0
vn 0 1 0
vn 0 1 0
vn 0 1 0
vn 0 1 0
vn 0 1 0
vn 0 1 0
vn 0 1 0
vn 0 1 0
vn 0 1 0
vn 0 1 0
vn 0 1 0
vn 0 1 0
vn 0 1 0
vn 0 1 0
vn 0 1 0
vn 0 1 0
vn 0 -1 0
vn 0 -1 0
vn 0 -1 0
vn 0 -1 0
vn 0 -1 0
vn 0 -1 0
vn 0 -1 0
vn 0 -1 0
vn 0 -1 0
vn 0 -1 0
vn 0 -1 0
vn 0 -1 0
vn 0 -1 0
vn 0 -1 0
vn 0 -1 0
vn 0 -1 0
vn 0 -1 0
f 193/193/193 202/202/202 194/194/194
f 202/202/202 203/203/203 194/194/194
f 194/194/194 203/203/203 195/195/195
f 203/203/203 204/204/204 195/195/195
f 195/195/195 204/204/204 196/196/196
f 204/204/204 205/205/205 196/196/196
f 196/196/196 205/205/205 197/197/197
f 205/205/205 206/206/206 197/197/197
f 197/197/197 206/206/206 198/198/198
f 206/206/206 207/207/207 198/198/198
f 198/198/198 207/207/207 199/199/199
f 207/207/207 208/208/208 199/199/199
f 199/199/199 208/208/208 200/200/200
f 208/208/208 209/209/209 200/200/200
f 200/200/200 209/209/209 201/201/201
f 209/209/209 210/210/210 201/201/201
f 219/219/219 220/220/220 211/211/211
f 220/220/220 221/221/221 212/212/212
f 221/221/221 222/222/222 213/213/213
f 222/222/222 223/223/223 214/214/214
f 223/223/223 224/224/224 215/215/215
f 224/224/224 225/225/225 216/216/216
f 225/225/225 226/226/226 217/217/217
f 226/226/226 227/227/227 218/218/218
f 237/237/237 236/236/236 228/228/228
f 238/238/238 237/237/237 229/229/229
f 239/239/239 238/238/238 230/230/230
f 240/240/240 239/239/239 231/231/231
f 241/241/241 240/240/240 232/232/232
f 242/242/242 241/241/241 233/233/233
f 243/243/243 242/242/242 234/234/234
f 244/244/244 243/243/243 235/235/235
o entry_post_right
usemtl timber
v 0.020000000000000018 1.414999988079071 2.0099999986588957
v 0.06242640733718874 1.414999988079071 1.9924264073371887
v 0.07999999865889551 1.414999988079071 1.95
v 0.06242640733718874 1.414999988079071 1.9075735926628112
v 0.020000000000000025 1.414999988079071 1.8900000013411045
v -0.022426407337188703 1.414999988079071 1.9075735926628112
v -0.039999998658895475 1.414999988079071 1.95
v -0.022426407337188703 1.414999988079071 1.9924264073371887
v 0.020000000000000004 1.414999988079071 2.0099999986588957
v 0.020000000000000018 0.14000001192092892 2.0200000002980234
v 0.06949747398495676 0.14000001192092892 1.9994974739849567
v 0.09000000029802324 0.14000001192092892 1.95
v 0.06949747398495676 0.14000001192092892 1.9005025260150432
v 0.020000000000000025 0.14000001192092892 1.8799999997019767
v -0.029497473984956724 0.14000001192092892 1.9005025260150432
v -0.050000000298023206 0.14000001192092892 1.95
v -0.029497473984956724 0.14000001192092892 1.9994974739849567
v 0.02 0.14000001192092892 2.0200000002980234
v 0.020000000000000018 1.414999988079071 1.95
v 0.020000000000000018 1.414999988079071 1.95
v 0.020000000000000018 1.414999988079071 1.95
v 0.020000000000000018 1.414999988079071 1.95
v 0.020000000000000018 1.414999988079071 1.95
v 0.020000000000000018 1.414999988079071 1.95
v 0.020000000000000018 1.414999988079071 1.95
v 0.020000000000000018 1.414999988079071 1.95
v 0.020000000000000018 1.414999988079071 2.0099999986588957
v 0.06242640733718874 1.414999988079071 1.9924264073371887
v 0.07999999865889551 1.414999988079071 1.95
v 0.06242640733718874 1.414999988079071 1.9075735926628112
v 0.020000000000000025 1.414999988079071 1.8900000013411045
v -0.022426407337188703 1.414999988079071 1.9075735926628112
v -0.039999998658895475 1.414999988079071 1.95
v -0.022426407337188703 1.414999988079071 1.9924264073371887
v 0.020000000000000004 1.414999988079071 2.0099999986588957
v 0.020000000000000018 0.14000001192092892 1.95
v 0.020000000000000018 0.14000001192092892 1.95
v 0.020000000000000018 0.14000001192092892 1.95
v 0.020000000000000018 0.14000001192092892 1.95
v 0.020000000000000018 0.14000001192092892 1.95
v 0.020000000000000018 0.14000001192092892 1.95
v 0.020000000000000018 0.14000001192092892 1.95
v 0.020000000000000018 0.14000001192092892 1.95
v 0.020000000000000018 0.14000001192092892 2.0200000002980234
v 0.06949747398495676 0.14000001192092892 1.9994974739849567
v 0.09000000029802324 0.14000001192092892 1.95
v 0.06949747398495676 0.14000001192092892 1.9005025260150432
v 0.020000000000000025 0.14000001192092892 1.8799999997019767
v -0.029497473984956724 0.14000001192092892 1.9005025260150432
v -0.050000000298023206 0.14000001192092892 1.95
v -0.029497473984956724 0.14000001192092892 1.9994974739849567
v 0.02 0.14000001192092892 2.0200000002980234
vt 0 1
vt 0.125 1
vt 0.25 1
vt 0.375 1
vt 0.5 1
vt 0.625 1
vt 0.75 1
vt 0.875 1
vt 1 1
vt 0 0
vt 0.125 0
vt 0.25 0
vt 0.375 0
vt 0.5 0
vt 0.625 0
vt 0.75 0
vt 0.875 0
vt 1 0
vt 0.5 0.5
vt 0.5 0.5
vt 0.5 0.5
vt 0.5 0.5
vt 0.5 0.5
vt 0.5 0.5
vt 0.5 0.5
vt 0.5 0.5
vt 1 0.5
vt 0.8535534143447876 0.8535534143447876
vt 0.5 1
vt 0.1464466154575348 0.8535534143447876
vt 0 0.5
vt 0.1464466154575348 0.1464466154575348
vt 0.5 0
vt 0.8535534143447876 0.1464466154575348
vt 1 0.5
vt 0.5 0.5
vt 0.5 0.5
vt 0.5 0.5
vt 0.5 0.5
vt 0.5 0.5
vt 0.5 0.5
vt 0.5 0.5
vt 0.5 0.5
vt 1 0.5
vt 0.8535534143447876 0.1464466154575348
vt 0.5 0
vt 0.1464466154575348 0.1464466154575348
vt 0 0.5
vt 0.1464466154575348 0.8535534143447876
vt 0.5 1
vt 0.8535534143447876 0.8535534143447876
vt 1 0.5
vn 0 0.007842895575010776 0.9999692440215348
vn 0.707085033424381 0.007842895797091066 0.707085033424381
vn 0.9999692440215348 0.007842895575010776 6.123045665857858e-17
vn 0.707085033424381 0.007842895797091066 -0.707085033424381
vn 1.2246091331715715e-16 0.007842895575010776 -0.9999692440215348
vn -0.707085033424381 0.007842895797091066 -0.707085033424381
vn -0.9999692440215348 0.007842895575010776 -1.8369137659318063e-16
vn -0.707085033424381 0.007842895797091066 0.707085033424381
vn -2.449218266343143e-16 0.007842895575010776 0.9999692440215348
vn 0 0.007842895575010776 0.9999692440215348
vn 0.707085033424381 0.007842895797091066 0.707085033424381
vn 0.9999692440215348 0.007842895575010776 6.123045665857858e-17
vn 0.707085033424381 0.007842895797091066 -0.707085033424381
vn 1.2246091331715715e-16 0.007842895575010776 -0.9999692440215348
vn -0.707085033424381 0.007842895797091066 -0.707085033424381
vn -0.9999692440215348 0.007842895575010776 -1.8369137659318063e-16
vn -0.707085033424381 0.007842895797091066 0.707085033424381
vn -2.449218266343143e-16 0.007842895575010776 0.9999692440215348
vn 0 1 0
vn 0 1 0
vn 0 1 0
vn 0 1 0
vn 0 1 0
vn 0 1 0
vn 0 1 0
vn 0 1 0
vn 0 1 0
vn 0 1 0
vn 0 1 0
vn 0 1 0
vn 0 1 0
vn 0 1 0
vn 0 1 0
vn 0 1 0
vn 0 1 0
vn 0 -1 0
vn 0 -1 0
vn 0 -1 0
vn 0 -1 0
vn 0 -1 0
vn 0 -1 0
vn 0 -1 0
vn 0 -1 0
vn 0 -1 0
vn 0 -1 0
vn 0 -1 0
vn 0 -1 0
vn 0 -1 0
vn 0 -1 0
vn 0 -1 0
vn 0 -1 0
vn 0 -1 0
f 245/245/245 254/254/254 246/246/246
f 254/254/254 255/255/255 246/246/246
f 246/246/246 255/255/255 247/247/247
f 255/255/255 256/256/256 247/247/247
f 247/247/247 256/256/256 248/248/248
f 256/256/256 257/257/257 248/248/248
f 248/248/248 257/257/257 249/249/249
f 257/257/257 258/258/258 249/249/249
f 249/249/249 258/258/258 250/250/250
f 258/258/258 259/259/259 250/250/250
f 250/250/250 259/259/259 251/251/251
f 259/259/259 260/260/260 251/251/251
f 251/251/251 260/260/260 252/252/252
f 260/260/260 261/261/261 252/252/252
f 252/252/252 261/261/261 253/253/253
f 261/261/261 262/262/262 253/253/253
f 271/271/271 272/272/272 263/263/263
f 272/272/272 273/273/273 264/264/264
f 273/273/273 274/274/274 265/265/265
f 274/274/274 275/275/275 266/266/266
f 275/275/275 276/276/276 267/267/267
f 276/276/276 277/277/277 268/268/268
f 277/277/277 278/278/278 269/269/269
f 278/278/278 279/279/279 270/270/270
f 289/289/289 288/288/288 280/280/280
f 290/290/290 289/289/289 281/281/281
f 291/291/291 290/290/290 282/282/282
f 292/292/292 291/291/291 283/283/283
f 293/293/293 292/292/292 284/284/284
f 294/294/294 293/293/293 285/285/285
f 295/295/295 294/294/294 286/286/286
f 296/296/296 295/295/295 287/287/287
o roof_panel_front
usemtl dark_thatch
v 2.25 1.7613129347240764 1.9748897578823144
v 2.25 3.3113129242566153 0.024889771051056164
v 2.25 1.6986870757433847 1.925110228948944
v 2.25 3.2486870652759237 -0.024889757882314067
v -2.25 3.3113129242566153 0.024889771051056164
v -2.25 1.7613129347240764 1.9748897578823144
v -2.25 3.2486870652759237 -0.024889757882314067
v -2.25 1.6986870757433847 1.925110228948944
v -2.25 3.3113129242566153 0.024889771051056164
v 2.25 3.3113129242566153 0.024889771051056164
v -2.25 1.7613129347240764 1.9748897578823144
v 2.25 1.7613129347240764 1.9748897578823144
v -2.25 1.6986870757433847 1.925110228948944
v 2.25 1.6986870757433847 1.925110228948944
v -2.25 3.2486870652759237 -0.024889757882314067
v 2.25 3.2486870652759237 -0.024889757882314067
v -2.25 1.7613129347240764 1.9748897578823144
v 2.25 1.7613129347240764 1.9748897578823144
v -2.25 1.6986870757433847 1.925110228948944
v 2.25 1.6986870757433847 1.925110228948944
v 2.25 3.3113129242566153 0.024889771051056164
v -2.25 3.3113129242566153 0.024889771051056164
v 2.25 3.2486870652759237 -0.024889757882314067
v -2.25 3.2486870652759237 -0.024889757882314067
vt 0 1
vt 1 1
vt 0 0
vt 1 0
vt 0 1
vt 1 1
vt 0 0
vt 1 0
vt 0 1
vt 1 1
vt 0 0
vt 1 0
vt 0 1
vt 1 1
vt 0 0
vt 1 0
vt 0 1
vt 1 1
vt 0 0
vt 1 0
vt 0 1
vt 1 1
vt 0 0
vt 1 0
vn 1 0 0
vn 1 0 0
vn 1 0 0
vn 1 0 0
vn -1 0 0
vn -1 0 0
vn -1 0 0
vn -1 0 0
vn 0 0.7828232547561078 0.6222441255753678
vn 0 0.7828232547561078 0.6222441255753678
vn 0 0.7828232547561078 0.6222441255753678
vn 0 0.7828232547561078 0.6222441255753678
vn 0 -0.7828232547561078 -0.6222441255753678
vn 0 -0.7828232547561078 -0.6222441255753678
vn 0 -0.7828232547561078 -0.6222441255753678
vn 0 -0.7828232547561078 -0.6222441255753678
vn 0 -0.6222441255753678 0.7828232547561078
vn 0 -0.6222441255753678 0.7828232547561078
vn 0 -0.6222441255753678 0.7828232547561078
vn 0 -0.6222441255753678 0.7828232547561078
vn 0 0.6222441255753678 -0.7828232547561078
vn 0 0.6222441255753678 -0.7828232547561078
vn 0 0.6222441255753678 -0.7828232547561078
vn 0 0.6222441255753678 -0.7828232547561078
f 297/297/297 299/299/299 298/298/298
f 299/299/299 300/300/300 298/298/298
f 301/301/301 303/303/303 302/302/302
f 303/303/303 304/304/304 302/302/302
f 305/305/305 307/307/307 306/306/306
f 307/307/307 308/308/308 306/306/306
f 309/309/309 311/311/311 310/310/310
f 311/311/311 312/312/312 310/310/310
f 313/313/313 315/315/315 314/314/314
f 315/315/315 316/316/316 314/314/314
f 317/317/317 319/319/319 318/318/318
f 319/319/319 320/320/320 318/318/318
o roof_panel_back
usemtl dark_thatch
v 2.25 3.3113129242566153 -0.024889771051056164
v 2.25 1.7613129347240764 -1.9748897578823144
v 2.25 3.2486870652759237 0.024889757882314067
v 2.25 1.6986870757433847 -1.925110228948944
v -2.25 1.7613129347240764 -1.9748897578823144
v -2.25 3.3113129242566153 -0.024889771051056164
v -2.25 1.6986870757433847 -1.925110228948944
v -2.25 3.2486870652759237 0.024889757882314067
v -2.25 1.7613129347240764 -1.9748897578823144
v 2.25 1.7613129347240764 -1.9748897578823144
v -2.25 3.3113129242566153 -0.024889771051056164
v 2.25 3.3113129242566153 -0.024889771051056164
v -2.25 3.2486870652759237 0.024889757882314067
v 2.25 3.2486870652759237 0.024889757882314067
v -2.25 1.6986870757433847 -1.925110228948944
v 2.25 1.6986870757433847 -1.925110228948944
v -2.25 3.3113129242566153 -0.024889771051056164
v 2.25 3.3113129242566153 -0.024889771051056164
v -2.25 3.2486870652759237 0.024889757882314067
v 2.25 3.2486870652759237 0.024889757882314067
v 2.25 1.7613129347240764 -1.9748897578823144
v -2.25 1.7613129347240764 -1.9748897578823144
v 2.25 1.6986870757433847 -1.925110228948944
v -2.25 1.6986870757433847 -1.925110228948944
vt 0 1
vt 1 1
vt 0 0
vt 1 0
vt 0 1
vt 1 1
vt 0 0
vt 1 0
vt 0 1
vt 1 1
vt 0 0
vt 1 0
vt 0 1
vt 1 1
vt 0 0
vt 1 0
vt 0 1
vt 1 1
vt 0 0
vt 1 0
vt 0 1
vt 1 1
vt 0 0
vt 1 0
vn 1 0 0
vn 1 0 0
vn 1 0 0
vn 1 0 0
vn -1 0 0
vn -1 0 0
vn -1 0 0
vn -1 0 0
vn 0 0.7828232547561078 -0.6222441255753678
vn 0 0.7828232547561078 -0.6222441255753678
vn 0 0.7828232547561078 -0.6222441255753678
vn 0 0.7828232547561078 -0.6222441255753678
vn 0 -0.7828232547561078 0.6222441255753678
vn 0 -0.7828232547561078 0.6222441255753678
vn 0 -0.7828232547561078 0.6222441255753678
vn 0 -0.7828232547561078 0.6222441255753678
vn 0 0.6222441255753678 0.7828232547561078
vn 0 0.6222441255753678 0.7828232547561078
vn 0 0.6222441255753678 0.7828232547561078
vn 0 0.6222441255753678 0.7828232547561078
vn 0 -0.6222441255753678 -0.7828232547561078
vn 0 -0.6222441255753678 -0.7828232547561078
vn 0 -0.6222441255753678 -0.7828232547561078
vn 0 -0.6222441255753678 -0.7828232547561078
f 321/321/321 323/323/323 322/322/322
f 323/323/323 324/324/324 322/322/322
f 325/325/325 327/327/327 326/326/326
f 327/327/327 328/328/328 326/326/326
f 329/329/329 331/331/331 330/330/330
f 331/331/331 332/332/332 330/330/330
f 333/333/333 335/335/335 334/334/334
f 335/335/335 336/336/336 334/334/334
f 337/337/337 339/339/339 338/338/338
f 339/339/339 340/340/340 338/338/338
f 341/341/341 343/343/343 342/342/342
f 343/343/343 344/344/344 342/342/342
o roof_ridge_cap
usemtl dark_thatch
v 2.2899999618530273 3.480000000298023 0.10000000149011612
v 2.2899999618530273 3.480000000298023 -0.10000000149011612
v 2.2899999618530273 3.3399999997019765 0.10000000149011612
v 2.2899999618530273 3.3399999997019765 -0.10000000149011612
v -2.2899999618530273 3.480000000298023 -0.10000000149011612
v -2.2899999618530273 3.480000000298023 0.10000000149011612
v -2.2899999618530273 3.3399999997019765 -0.10000000149011612
v -2.2899999618530273 3.3399999997019765 0.10000000149011612
v -2.2899999618530273 3.480000000298023 -0.10000000149011612
v 2.2899999618530273 3.480000000298023 -0.10000000149011612
v -2.2899999618530273 3.480000000298023 0.10000000149011612
v 2.2899999618530273 3.480000000298023 0.10000000149011612
v -2.2899999618530273 3.3399999997019765 0.10000000149011612
v 2.2899999618530273 3.3399999997019765 0.10000000149011612
v -2.2899999618530273 3.3399999997019765 -0.10000000149011612
v 2.2899999618530273 3.3399999997019765 -0.10000000149011612
v -2.2899999618530273 3.480000000298023 0.10000000149011612
v 2.2899999618530273 3.480000000298023 0.10000000149011612
v -2.2899999618530273 3.3399999997019765 0.10000000149011612
v 2.2899999618530273 3.3399999997019765 0.10000000149011612
v 2.2899999618530273 3.480000000298023 -0.10000000149011612
v -2.2899999618530273 3.480000000298023 -0.10000000149011612
v 2.2899999618530273 3.3399999997019765 -0.10000000149011612
v -2.2899999618530273 3.3399999997019765 -0.10000000149011612
vt 0 1
vt 1 1
vt 0 0
vt 1 0
vt 0 1
vt 1 1
vt 0 0
vt 1 0
vt 0 1
vt 1 1
vt 0 0
vt 1 0
vt 0 1
vt 1 1
vt 0 0
vt 1 0
vt 0 1
vt 1 1
vt 0 0
vt 1 0
vt 0 1
vt 1 1
vt 0 0
vt 1 0
vn 1 0 0
vn 1 0 0
vn 1 0 0
vn 1 0 0
vn -1 0 0
vn -1 0 0
vn -1 0 0
vn -1 0 0
vn 0 1 0
vn 0 1 0
vn 0 1 0
vn 0 1 0
vn 0 -1 0
vn 0 -1 0
vn 0 -1 0
vn 0 -1 0
vn 0 0 1
vn 0 0 1
vn 0 0 1
vn 0 0 1
vn 0 0 -1
vn 0 0 -1
vn 0 0 -1
vn 0 0 -1
f 345/345/345 347/347/347 346/346/346
f 347/347/347 348/348/348 346/346/346
f 349/349/349 351/351/351 350/350/350
f 351/351/351 352/352/352 350/350/350
f 353/353/353 355/355/355 354/354/354
f 355/355/355 356/356/356 354/354/354
f 357/357/357 359/359/359 358/358/358
f 359/359/359 360/360/360 358/358/358
f 361/361/361 363/363/363 362/362/362
f 363/363/363 364/364/364 362/362/362
f 365/365/365 367/367/367 366/366/366
f 367/367/367 368/368/368 366/366/366
o gable_end_right
usemtl earthen_plaster
v 1.5999999999999999 1.88 1.2999999523162842
v 1.6 3.279999976158142 0
v 1.6000000000000003 1.88 -1.2999999523162842
v 1.6500000007450584 1.88 -1.2999999523162842
v 1.6500000007450581 3.279999976158142 1.1102230411687688e-17
v 1.650000000745058 1.88 1.2999999523162842
v 1.5999999999999999 1.88 1.2999999523162842
v 1.6000000000000003 1.88 -1.2999999523162842
v 1.650000000745058 1.88 1.2999999523162842
v 1.6000000000000003 1.88 -1.2999999523162842
v 1.6500000007450584 1.88 -1.2999999523162842
v 1.650000000745058 1.88 1.2999999523162842
v 1.6000000000000003 1.88 -1.2999999523162842
v 1.6 3.279999976158142 0
v 1.6500000007450584 1.88 -1.2999999523162842
v 1.6 3.279999976158142 0
v 1.6500000007450581 3.279999976158142 1.1102230411687688e-17
v 1.6500000007450584 1.88 -1.2999999523162842
v 1.6 3.279999976158142 0
v 1.5999999999999999 1.88 1.2999999523162842
v 1.6500000007450581 3.279999976158142 1.1102230411687688e-17
v 1.5999999999999999 1.88 1.2999999523162842
v 1.650000000745058 1.88 1.2999999523162842
v 1.6500000007450581 3.279999976158142 1.1102230411687688e-17
vt -1.2999999523162842 0
vt 0 1.399999976158142
vt 1.2999999523162842 0
vt 1.2999999523162842 0
vt 0 1.399999976158142
vt -1.2999999523162842 0
vt -1.2999999523162842 1
vt 1.2999999523162842 1
vt -1.2999999523162842 0.949999988079071
vt 1.2999999523162842 1
vt 1.2999999523162842 0.949999988079071
vt -1.2999999523162842 0.949999988079071
vt 0 1
vt 1.399999976158142 1
vt 0 0.949999988079071
vt 1.399999976158142 1
vt 1.399999976158142 0.949999988079071
vt 0 0.949999988079071
vt 1.399999976158142 1
vt 0 1
vt 1.399999976158142 0.949999988079071
vt 0 1
vt 0 0.949999988079071
vt 1.399999976158142 0.949999988079071
vn -1 0 -2.220446049250313e-16
vn -1 0 -2.220446049250313e-16
vn -1 0 -2.220446049250313e-16
vn 1 0 2.220446049250313e-16
vn 1 0 2.220446049250313e-16
vn 1 0 2.220446049250313e-16
vn 0 -1 0
vn 0 -1 0
vn 0 -1 0
vn 0 -1 0
vn 0 -1 0
vn 0 -1 0
vn 1.6271284369669397e-16 0.6804510879362501 -0.7327935022408247
vn 1.6271284369669397e-16 0.6804510879362501 -0.7327935022408247
vn 1.6271284369669397e-16 0.6804510879362501 -0.7327935022408247
vn 1.6271284369669397e-16 0.6804510879362501 -0.7327935022408247
vn 1.6271284369669397e-16 0.6804510879362501 -0.7327935022408247
vn 1.6271284369669397e-16 0.6804510879362501 -0.7327935022408247
vn -1.6271284369669397e-16 0.6804510879362501 0.7327935022408247
vn -1.6271284369669397e-16 0.6804510879362501 0.7327935022408247
vn -1.6271284369669397e-16 0.6804510879362501 0.7327935022408247
vn -1.6271284369669397e-16 0.6804510879362501 0.7327935022408247
vn -1.6271284369669397e-16 0.6804510879362501 0.7327935022408247
vn -1.6271284369669397e-16 0.6804510879362501 0.7327935022408247
f 369/369/369 370/370/370 371/371/371
f 372/372/372 373/373/373 374/374/374
f 375/375/375 376/376/376 377/377/377
f 378/378/378 379/379/379 380/380/380
f 381/381/381 382/382/382 383/383/383
f 384/384/384 385/385/385 386/386/386
f 387/387/387 388/388/388 389/389/389
f 390/390/390 391/391/391 392/392/392
o gable_end_left
usemtl earthen_plaster
v -1.6000000000000003 1.88 1.2999999523162842
v -1.6 3.279999976158142 0
v -1.5999999999999999 1.88 -1.2999999523162842
v -1.5499999992549418 1.88 -1.2999999523162842
v -1.549999999254942 3.279999976158142 1.1102230411687688e-17
v -1.5499999992549423 1.88 1.2999999523162842
v -1.6000000000000003 1.88 1.2999999523162842
v -1.5999999999999999 1.88 -1.2999999523162842
v -1.5499999992549423 1.88 1.2999999523162842
v -1.5999999999999999 1.88 -1.2999999523162842
v -1.5499999992549418 1.88 -1.2999999523162842
v -1.5499999992549423 1.88 1.2999999523162842
v -1.5999999999999999 1.88 -1.2999999523162842
v -1.6 3.279999976158142 0
v -1.5499999992549418 1.88 -1.2999999523162842
v -1.6 3.279999976158142 0
v -1.549999999254942 3.279999976158142 1.1102230411687688e-17
v -1.5499999992549418 1.88 -1.2999999523162842
v -1.6 3.279999976158142 0
v -1.6000000000000003 1.88 1.2999999523162842
v -1.549999999254942 3.279999976158142 1.1102230411687688e-17
v -1.6000000000000003 1.88 1.2999999523162842
v -1.5499999992549423 1.88 1.2999999523162842
v -1.549999999254942 3.279999976158142 1.1102230411687688e-17
vt -1.2999999523162842 0
vt 0 1.399999976158142
vt 1.2999999523162842 0
vt 1.2999999523162842 0
vt 0 1.399999976158142
vt -1.2999999523162842 0
vt -1.2999999523162842 1
vt 1.2999999523162842 1
vt -1.2999999523162842 0.949999988079071
vt 1.2999999523162842 1
vt 1.2999999523162842 0.949999988079071
vt -1.2999999523162842 0.949999988079071
vt 0 1
vt 1.399999976158142 1
vt 0 0.949999988079071
vt 1.399999976158142 1
vt 1.399999976158142 0.949999988079071
vt 0 0.949999988079071
vt 1.399999976158142 1
vt 0 1
vt 1.399999976158142 0.949999988079071
vt 0 1
vt 0 0.949999988079071
vt 1.399999976158142 0.949999988079071
vn -1 0 -2.220446049250313e-16
vn -1 0 -2.220446049250313e-16
vn -1 0 -2.220446049250313e-16
vn 1 0 2.220446049250313e-16
vn 1 0 2.220446049250313e-16
vn 1 0 2.220446049250313e-16
vn 0 -1 0
vn 0 -1 0
vn 0 -1 0
vn 0 -1 0
vn 0 -1 0
vn 0 -1 0
vn 1.6271284369669397e-16 0.6804510879362501 -0.7327935022408247
vn 1.6271284369669397e-16 0.6804510879362501 -0.7327935022408247
vn 1.6271284369669397e-16 0.6804510879362501 -0.7327935022408247
vn 1.6271284369669397e-16 0.6804510879362501 -0.7327935022408247
vn 1.6271284369669397e-16 0.6804510879362501 -0.7327935022408247
vn 1.6271284369669397e-16 0.6804510879362501 -0.7327935022408247
vn -1.6271284369669397e-16 0.6804510879362501 0.7327935022408247
vn -1.6271284369669397e-16 0.6804510879362501 0.7327935022408247
vn -1.6271284369669397e-16 0.6804510879362501 0.7327935022408247
vn -1.6271284369669397e-16 0.6804510879362501 0.7327935022408247
vn -1.6271284369669397e-16 0.6804510879362501 0.7327935022408247
vn -1.6271284369669397e-16 0.6804510879362501 0.7327935022408247
f 393/393/393 394/394/394 395/395/395
f 396/396/396 397/397/397 398/398/398
f 399/399/399 400/400/400 401/401/401
f 402/402/402 403/403/403 404/404/404
f 405/405/405 406/406/406 407/407/407
f 408/408/408 409/409/409 410/410/410
f 411/411/411 412/412/412 413/413/413
f 414/414/414 415/415/415 416/416/416
